<?xml version="1.0" encoding="UTF-8"?>
<svg xmlns="http://www.w3.org/2000/svg" xmlns:xlink="http://www.w3.org/1999/xlink" width="504pt" height="360pt" viewBox="0 0 504 360" version="1.1">
<g id="surface4">
<path style="fill:none;stroke-width:1.066978;stroke-linecap:butt;stroke-linejoin:round;stroke:rgb(97.254902%,46.27451%,42.745098%);stroke-opacity:1;stroke-miterlimit:10;" d="M 22.910156 119.328125 L 24.742188 119.234375 L 26.574219 119.113281 L 28.40625 118.957031 L 30.238281 118.773438 L 32.074219 118.558594 L 33.90625 118.316406 L 35.738281 118.046875 L 37.570313 117.746094 L 39.402344 117.421875 L 41.238281 117.066406 L 43.070313 116.6875 L 44.902344 116.28125 L 46.734375 115.851563 L 48.566406 115.394531 L 50.398438 114.910156 L 52.234375 114.40625 L 54.066406 113.878906 L 55.898438 113.324219 L 57.730469 112.75 L 59.5625 112.152344 L 61.394531 111.53125 L 63.230469 110.890625 L 65.0625 110.230469 L 66.894531 109.546875 L 68.726563 108.847656 L 70.558594 108.125 L 72.394531 107.382813 L 74.226563 106.625 L 76.058594 105.847656 L 77.890625 105.050781 L 79.722656 104.238281 L 81.554688 103.410156 L 83.390625 102.566406 L 85.222656 101.707031 L 87.054688 100.828125 L 88.886719 99.9375 L 90.71875 99.03125 L 92.550781 98.113281 L 94.386719 97.179688 L 96.21875 96.234375 L 98.050781 95.277344 L 99.882813 94.308594 L 101.714844 93.328125 L 103.550781 92.332031 L 105.382813 91.332031 L 107.214844 90.316406 L 109.046875 89.292969 L 110.878906 88.261719 L 112.710938 87.21875 L 114.546875 86.171875 L 116.378906 85.113281 L 118.210938 84.050781 L 121.875 81.902344 L 123.710938 80.816406 L 125.542969 79.726563 L 127.375 78.632813 L 129.207031 77.535156 L 131.039063 76.433594 L 132.871094 75.328125 L 134.707031 74.21875 L 138.371094 71.992188 L 143.867188 68.640625 L 145.703125 67.523438 L 147.535156 66.402344 L 151.199219 64.167969 L 153.03125 63.054688 L 154.867188 61.941406 L 158.53125 59.722656 L 162.195313 57.519531 L 164.027344 56.425781 L 165.863281 55.335938 L 167.695313 54.25 L 169.527344 53.167969 L 171.359375 52.09375 L 173.191406 51.027344 L 175.027344 49.96875 L 176.859375 48.917969 L 178.691406 47.875 L 180.523438 46.839844 L 182.355469 45.8125 L 184.1875 44.796875 L 186.023438 43.789063 L 187.855469 42.792969 L 189.6875 41.808594 L 191.519531 40.832031 L 193.351563 39.871094 L 195.183594 38.921875 L 197.019531 37.984375 L 198.851563 37.0625 L 200.683594 36.152344 L 202.515625 35.253906 L 204.347656 34.375 L 206.183594 33.507813 L 208.015625 32.65625 L 209.847656 31.824219 L 211.679688 31.003906 L 213.511719 30.203125 L 215.34375 29.421875 L 217.179688 28.65625 L 219.011719 27.910156 L 220.84375 27.179688 L 222.675781 26.472656 L 224.507813 25.785156 L 226.34375 25.117188 L 228.175781 24.46875 L 230.007813 23.839844 L 231.839844 23.234375 L 233.671875 22.652344 L 235.503906 22.09375 L 237.339844 21.554688 L 239.171875 21.042969 L 241.003906 20.554688 L 242.835938 20.089844 L 244.667969 19.648438 L 246.5 19.234375 L 248.335938 18.84375 L 250.167969 18.484375 L 252 18.148438 L 253.832031 17.839844 L 255.664063 17.558594 L 257.5 17.308594 L 259.332031 17.085938 L 261.164063 16.890625 L 262.996094 16.726563 L 264.828125 16.589844 L 266.660156 16.488281 L 268.496094 16.414063 L 270.328125 16.371094 L 272.160156 16.363281 L 273.992188 16.386719 L 275.824219 16.441406 L 277.65625 16.53125 L 279.492188 16.65625 L 281.324219 16.8125 L 283.15625 17.007813 L 284.988281 17.234375 L 286.820313 17.496094 L 288.65625 17.796875 L 290.488281 18.132813 L 292.320313 18.507813 L 294.152344 18.917969 L 295.984375 19.367188 L 297.816406 19.855469 L 299.652344 20.382813 L 301.484375 20.949219 L 303.316406 21.554688 L 305.148438 22.199219 L 306.980469 22.886719 L 308.816406 23.617188 L 310.648438 24.386719 L 312.480469 25.199219 L 314.3125 26.054688 L 316.144531 26.953125 L 317.976563 27.898438 L 319.8125 28.882813 L 321.644531 29.914063 L 323.476563 30.992188 L 325.308594 32.113281 L 327.140625 33.28125 L 328.972656 34.496094 L 330.808594 35.757813 L 332.640625 37.066406 L 334.472656 38.421875 L 336.304688 39.828125 L 338.136719 41.28125 L 339.972656 42.785156 L 341.804688 44.339844 L 343.636719 45.941406 L 345.46875 47.597656 L 347.300781 49.300781 L 349.132813 51.058594 L 350.96875 52.867188 L 352.800781 54.730469 L 354.632813 56.644531 L 356.464844 58.613281 L 358.296875 60.632813 L 360.132813 62.710938 L 361.964844 64.84375 L 363.796875 67.03125 L 365.628906 69.273438 L 367.460938 71.570313 L 369.292969 73.925781 L 371.128906 76.339844 L 372.960938 78.8125 L 374.792969 81.339844 L 376.625 83.929688 L 378.457031 86.574219 L 380.289063 89.28125 L 382.125 92.050781 L 383.957031 94.875 L 385.789063 97.765625 L 387.621094 100.714844 L 389.453125 103.726563 L 391.289063 106.800781 L 393.121094 109.9375 L 394.953125 113.136719 L 396.785156 116.402344 L 398.617188 119.730469 L 400.449219 123.121094 L 402.285156 126.582031 L 404.117188 130.105469 L 405.949219 133.695313 L 407.78125 137.351563 L 409.613281 141.078125 L 411.449219 144.867188 L 413.28125 148.726563 L 415.113281 152.65625 L 416.945313 156.652344 L 418.777344 160.71875 L 420.609375 164.855469 L 422.445313 169.0625 L 424.277344 173.339844 L 426.109375 177.6875 L 427.941406 182.109375 L 429.773438 186.601563 L 431.605469 191.167969 L 433.441406 195.804688 L 435.273438 200.519531 L 437.105469 205.304688 L 438.9375 210.167969 L 440.769531 215.101563 L 442.605469 220.113281 L 444.4375 225.203125 L 446.269531 230.367188 L 448.101563 235.609375 L 449.933594 240.925781 L 451.765625 246.324219 L 453.601563 251.796875 L 455.433594 257.351563 L 457.265625 262.984375 L 459.097656 268.695313 L 460.929688 274.488281 L 462.761719 280.363281 L 464.597656 286.316406 L 466.429688 292.351563 L 468.261719 298.472656 L 470.09375 304.671875 L 471.925781 310.957031 L 473.761719 317.324219 L 475.59375 323.773438 L 477.425781 330.308594 L 479.257813 336.929688 L 481.089844 343.636719 "/>
<path style="fill:none;stroke-width:1.066978;stroke-linecap:butt;stroke-linejoin:round;stroke:rgb(0%,72.941176%,21.960784%);stroke-opacity:1;stroke-miterlimit:10;" d="M 22.910156 119.328125 L 24.742188 119.175781 L 26.574219 119.03125 L 28.40625 118.890625 L 30.238281 118.753906 L 32.074219 118.628906 L 33.90625 118.503906 L 35.738281 118.390625 L 37.570313 118.28125 L 39.402344 118.179688 L 41.238281 118.082031 L 43.070313 117.992188 L 44.902344 117.90625 L 46.734375 117.828125 L 48.566406 117.757813 L 50.398438 117.691406 L 52.234375 117.632813 L 54.066406 117.578125 L 55.898438 117.53125 L 57.730469 117.492188 L 59.5625 117.457031 L 61.394531 117.429688 L 63.230469 117.40625 L 65.0625 117.390625 L 66.894531 117.382813 L 68.726563 117.378906 L 70.558594 117.382813 L 72.394531 117.390625 L 74.226563 117.40625 L 76.058594 117.429688 L 77.890625 117.457031 L 79.722656 117.492188 L 81.554688 117.53125 L 83.390625 117.578125 L 85.222656 117.632813 L 87.054688 117.691406 L 88.886719 117.757813 L 90.71875 117.828125 L 92.550781 117.90625 L 94.386719 117.992188 L 96.21875 118.082031 L 98.050781 118.179688 L 99.882813 118.28125 L 101.714844 118.390625 L 103.550781 118.503906 L 107.214844 118.753906 L 109.046875 118.890625 L 110.878906 119.03125 L 112.710938 119.175781 L 114.546875 119.328125 L 116.378906 119.488281 L 118.210938 119.652344 L 120.042969 119.824219 L 121.875 120.003906 L 123.710938 120.1875 L 125.542969 120.378906 L 127.375 120.574219 L 129.207031 120.777344 L 131.039063 120.988281 L 132.871094 121.203125 L 134.707031 121.421875 L 136.539063 121.652344 L 138.371094 121.886719 L 140.203125 122.125 L 142.035156 122.371094 L 143.867188 122.625 L 145.703125 122.882813 L 147.535156 123.148438 L 149.367188 123.421875 L 151.199219 123.699219 L 153.03125 123.984375 L 154.867188 124.273438 L 156.699219 124.570313 L 158.53125 124.871094 L 160.363281 125.179688 L 162.195313 125.496094 L 164.027344 125.816406 L 165.863281 126.144531 L 167.695313 126.480469 L 169.527344 126.820313 L 171.359375 127.164063 L 173.191406 127.519531 L 175.027344 127.878906 L 176.859375 128.242188 L 178.691406 128.613281 L 180.523438 128.992188 L 182.355469 129.375 L 184.1875 129.765625 L 186.023438 130.160156 L 189.6875 130.972656 L 191.519531 131.386719 L 193.351563 131.808594 L 195.183594 132.238281 L 197.019531 132.671875 L 198.851563 133.109375 L 200.683594 133.558594 L 202.515625 134.011719 L 204.347656 134.46875 L 206.183594 134.933594 L 208.015625 135.40625 L 209.847656 135.882813 L 211.679688 136.367188 L 213.511719 136.855469 L 215.34375 137.351563 L 217.179688 137.855469 L 219.011719 138.363281 L 220.84375 138.878906 L 222.675781 139.398438 L 224.507813 139.925781 L 226.34375 140.460938 L 228.175781 141 L 230.007813 141.546875 L 231.839844 142.097656 L 233.671875 142.65625 L 235.503906 143.222656 L 237.339844 143.792969 L 239.171875 144.371094 L 241.003906 144.953125 L 242.835938 145.542969 L 244.667969 146.140625 L 246.5 146.742188 L 248.335938 147.351563 L 250.167969 147.964844 L 252 148.585938 L 253.832031 149.214844 L 255.664063 149.847656 L 257.5 150.488281 L 259.332031 151.132813 L 261.164063 151.785156 L 262.996094 152.445313 L 264.828125 153.109375 L 266.660156 153.78125 L 268.496094 154.457031 L 270.328125 155.140625 L 272.160156 155.832031 L 273.992188 156.527344 L 275.824219 157.230469 L 277.65625 157.9375 L 279.492188 158.652344 L 281.324219 159.371094 L 284.988281 160.832031 L 286.820313 161.574219 L 288.65625 162.320313 L 290.488281 163.070313 L 292.320313 163.828125 L 294.152344 164.59375 L 295.984375 165.363281 L 297.816406 166.140625 L 299.652344 166.925781 L 301.484375 167.714844 L 303.316406 168.511719 L 305.148438 169.3125 L 306.980469 170.121094 L 308.816406 170.933594 L 310.648438 171.753906 L 312.480469 172.582031 L 316.144531 174.253906 L 317.976563 175.101563 L 319.8125 175.953125 L 321.644531 176.8125 L 323.476563 177.675781 L 325.308594 178.546875 L 327.140625 179.421875 L 328.972656 180.308594 L 330.808594 181.195313 L 334.472656 182.992188 L 336.304688 183.902344 L 338.136719 184.816406 L 339.972656 185.738281 L 341.804688 186.664063 L 343.636719 187.597656 L 345.46875 188.535156 L 347.300781 189.480469 L 349.132813 190.433594 L 350.96875 191.390625 L 352.800781 192.355469 L 354.632813 193.328125 L 356.464844 194.304688 L 358.296875 195.285156 L 360.132813 196.277344 L 361.964844 197.269531 L 363.796875 198.273438 L 365.628906 199.28125 L 367.460938 200.296875 L 369.292969 201.316406 L 371.128906 202.34375 L 372.960938 203.375 L 374.792969 204.414063 L 376.625 205.460938 L 378.457031 206.511719 L 380.289063 207.570313 L 382.125 208.632813 L 383.957031 209.703125 L 385.789063 210.78125 L 387.621094 211.863281 L 389.453125 212.953125 L 391.289063 214.046875 L 393.121094 215.148438 L 394.953125 216.257813 L 396.785156 217.371094 L 398.617188 218.492188 L 400.449219 219.621094 L 402.285156 220.753906 L 404.117188 221.890625 L 405.949219 223.035156 L 407.78125 224.1875 L 409.613281 225.347656 L 411.449219 226.511719 L 413.28125 227.679688 L 415.113281 228.855469 L 416.945313 230.039063 L 418.777344 231.230469 L 420.609375 232.425781 L 422.445313 233.625 L 424.277344 234.832031 L 426.109375 236.046875 L 427.941406 237.265625 L 429.773438 238.492188 L 431.605469 239.726563 L 433.441406 240.964844 L 435.273438 242.210938 L 437.105469 243.460938 L 438.9375 244.71875 L 440.769531 245.984375 L 442.605469 247.253906 L 444.4375 248.53125 L 446.269531 249.8125 L 448.101563 251.101563 L 449.933594 252.398438 L 451.765625 253.699219 L 453.601563 255.007813 L 455.433594 256.320313 L 457.265625 257.640625 L 459.097656 258.964844 L 460.929688 260.296875 L 462.761719 261.636719 L 464.597656 262.984375 L 466.429688 264.335938 L 468.261719 265.691406 L 470.09375 267.054688 L 471.925781 268.425781 L 473.761719 269.800781 L 475.59375 271.183594 L 477.425781 272.574219 L 479.257813 273.96875 L 481.089844 275.367188 "/>
<path style="fill:none;stroke-width:1.066978;stroke-linecap:butt;stroke-linejoin:round;stroke:rgb(38.039216%,61.176471%,100%);stroke-opacity:1;stroke-miterlimit:10;" d="M 22.910156 119.328125 L 30.238281 121.203125 L 32.074219 121.671875 L 33.90625 122.136719 L 39.402344 123.542969 L 41.238281 124.011719 L 43.070313 124.480469 L 44.902344 124.945313 L 50.398438 126.351563 L 52.234375 126.820313 L 54.066406 127.289063 L 55.898438 127.753906 L 61.394531 129.160156 L 63.230469 129.628906 L 66.894531 130.566406 L 68.726563 131.03125 L 70.558594 131.5 L 72.394531 131.96875 L 77.890625 133.375 L 79.722656 133.839844 L 81.554688 134.308594 L 83.390625 134.777344 L 88.886719 136.183594 L 90.71875 136.648438 L 92.550781 137.117188 L 94.386719 137.585938 L 99.882813 138.992188 L 101.714844 139.457031 L 103.550781 139.925781 L 110.878906 141.800781 L 112.710938 142.265625 L 114.546875 142.734375 L 121.875 144.609375 L 123.710938 145.078125 L 125.542969 145.542969 L 132.871094 147.417969 L 134.707031 147.886719 L 136.539063 148.351563 L 143.867188 150.226563 L 145.703125 150.695313 L 147.535156 151.160156 L 153.03125 152.566406 L 154.867188 153.035156 L 156.699219 153.503906 L 158.53125 153.96875 L 164.027344 155.375 L 165.863281 155.84375 L 167.695313 156.3125 L 169.527344 156.777344 L 173.191406 157.714844 L 175.027344 158.183594 L 178.691406 159.121094 L 180.523438 159.585938 L 184.1875 160.523438 L 186.023438 160.992188 L 191.519531 162.398438 L 193.351563 162.863281 L 195.183594 163.332031 L 197.019531 163.800781 L 202.515625 165.207031 L 204.347656 165.671875 L 206.183594 166.140625 L 213.511719 168.015625 L 215.34375 168.480469 L 217.179688 168.949219 L 224.507813 170.824219 L 226.34375 171.289063 L 235.503906 173.632813 L 237.339844 174.097656 L 246.5 176.441406 L 248.335938 176.910156 L 250.167969 177.375 L 255.664063 178.78125 L 257.5 179.25 L 259.332031 179.71875 L 261.164063 180.183594 L 266.660156 181.589844 L 268.496094 182.058594 L 270.328125 182.527344 L 272.160156 182.992188 L 277.65625 184.398438 L 279.492188 184.867188 L 281.324219 185.335938 L 283.15625 185.800781 L 286.820313 186.738281 L 288.65625 187.207031 L 292.320313 188.144531 L 294.152344 188.609375 L 297.816406 189.546875 L 299.652344 190.015625 L 303.316406 190.953125 L 305.148438 191.417969 L 306.980469 191.886719 L 308.816406 192.355469 L 316.144531 194.230469 L 317.976563 194.695313 L 319.8125 195.164063 L 327.140625 197.039063 L 328.972656 197.503906 L 330.808594 197.972656 L 338.136719 199.847656 L 339.972656 200.3125 L 349.132813 202.65625 L 350.96875 203.121094 L 358.296875 204.996094 L 360.132813 205.464844 L 361.964844 205.929688 L 369.292969 207.804688 L 371.128906 208.273438 L 372.960938 208.742188 L 374.792969 209.207031 L 380.289063 210.613281 L 382.125 211.082031 L 383.957031 211.550781 L 385.789063 212.015625 L 389.453125 212.953125 L 391.289063 213.421875 L 394.953125 214.359375 L 396.785156 214.824219 L 400.449219 215.761719 L 402.285156 216.230469 L 405.949219 217.167969 L 407.78125 217.632813 L 409.613281 218.101563 L 411.449219 218.570313 L 416.945313 219.976563 L 418.777344 220.441406 L 420.609375 220.910156 L 422.445313 221.378906 L 427.941406 222.785156 L 429.773438 223.25 L 431.605469 223.71875 L 433.441406 224.1875 L 440.769531 226.0625 L 442.605469 226.527344 L 451.765625 228.871094 L 453.601563 229.335938 L 462.761719 231.679688 L 464.597656 232.144531 L 471.925781 234.019531 L 473.761719 234.488281 L 475.59375 234.953125 L 481.089844 236.359375 "/>
</g>
</svg>
