<?xml version="1.0" encoding="UTF-8" standalone="no"?>
<svg
   xmlns:dc="http://purl.org/dc/elements/1.1/"
   xmlns:cc="http://creativecommons.org/ns#"
   xmlns:rdf="http://www.w3.org/1999/02/22-rdf-syntax-ns#"
   xmlns:svg="http://www.w3.org/2000/svg"
   xmlns="http://www.w3.org/2000/svg"
   xmlns:sodipodi="http://sodipodi.sourceforge.net/DTD/sodipodi-0.dtd"
   xmlns:inkscape="http://www.inkscape.org/namespaces/inkscape"
   width="688.75977"
   height="92.616104"
   version="1.1"
   id="svg5560"
   sodipodi:docname="boxes-arrows.svg"
   inkscape:version="0.92.3 (2405546, 2018-03-11)">
  <metadata
     id="metadata5566">
    <rdf:RDF>
      <cc:Work
         rdf:about="">
        <dc:format>image/svg+xml</dc:format>
        <dc:type
           rdf:resource="http://purl.org/dc/dcmitype/StillImage" />
        <dc:title />
      </cc:Work>
    </rdf:RDF>
  </metadata>
  <defs
     id="defs5564">
    <marker
       inkscape:stockid="Arrow2Lend"
       orient="auto"
       refY="0"
       refX="0"
       id="Arrow2Lend"
       style="overflow:visible"
       inkscape:isstock="true">
      <path
         id="path1730"
         style="fill:#000000;fill-opacity:1;fill-rule:evenodd;stroke:#000000;stroke-width:0.625;stroke-linejoin:round;stroke-opacity:1"
         d="M 8.7185878,4.0337352 -2.2072895,0.01601326 8.7185884,-4.0017078 c -1.7454984,2.3720609 -1.7354408,5.6174519 -6e-7,8.035443 z"
         transform="matrix(-1.1,0,0,-1.1,-1.1,0)"
         inkscape:connector-curvature="0" />
    </marker>
    <inkscape:path-effect
       effect="bspline"
       id="path-effect1705"
       is_visible="true"
       weight="33.333333"
       steps="2"
       helper_size="0"
       apply_no_weight="true"
       apply_with_weight="true"
       only_selected="false" />
    <inkscape:path-effect
       effect="bspline"
       id="path-effect1825"
       is_visible="true"
       weight="33.333333"
       steps="2"
       helper_size="0"
       apply_no_weight="true"
       apply_with_weight="true"
       only_selected="false" />
    <marker
       inkscape:stockid="Arrow2Lstart"
       orient="auto"
       refY="0"
       refX="0"
       id="Arrow2Lstart"
       style="overflow:visible"
       inkscape:isstock="true">
      <path
         id="path4580"
         style="fill:#000000;fill-opacity:1;fill-rule:evenodd;stroke:#000000;stroke-width:0.625;stroke-linejoin:round;stroke-opacity:1"
         d="M 8.7185878,4.0337352 -2.2072895,0.01601326 8.7185884,-4.0017078 c -1.7454984,2.3720609 -1.7354408,5.6174519 -6e-7,8.035443 z"
         transform="matrix(1.1,0,0,1.1,1.1,0)"
         inkscape:connector-curvature="0" />
    </marker>
    <marker
       inkscape:stockid="Arrow2Lend"
       orient="auto"
       refY="0"
       refX="0"
       id="marker4512"
       style="overflow:visible"
       inkscape:isstock="true">
      <path
         inkscape:connector-curvature="0"
         id="path4510"
         style="fill:#000000;fill-opacity:1;fill-rule:evenodd;stroke:#000000;stroke-width:0.625;stroke-linejoin:round;stroke-opacity:1"
         d="M 8.7185878,4.0337352 -2.2072895,0.01601326 8.7185884,-4.0017078 c -1.7454984,2.3720609 -1.7354408,5.6174519 -6e-7,8.035443 z"
         transform="matrix(-1.1,0,0,-1.1,-1.1,0)" />
    </marker>
    <inkscape:path-effect
       effect="bspline"
       id="path-effect4496"
       is_visible="true"
       weight="33.333333"
       steps="2"
       helper_size="0"
       apply_no_weight="true"
       apply_with_weight="true"
       only_selected="false" />
    <marker
       inkscape:isstock="true"
       style="overflow:visible"
       id="marker6123"
       refX="0"
       refY="0"
       orient="auto"
       inkscape:stockid="Arrow2Lend">
      <path
         transform="matrix(-1.1,0,0,-1.1,-1.1,0)"
         d="M 8.7185878,4.0337352 -2.2072895,0.01601326 8.7185884,-4.0017078 c -1.7454984,2.3720609 -1.7354408,5.6174519 -6e-7,8.035443 z"
         style="fill:#000000;fill-opacity:1;fill-rule:evenodd;stroke:#000000;stroke-width:0.625;stroke-linejoin:round;stroke-opacity:1"
         id="path6121"
         inkscape:connector-curvature="0" />
    </marker>
    <marker
       inkscape:isstock="true"
       style="overflow:visible"
       id="marker6123-9"
       refX="0"
       refY="0"
       orient="auto"
       inkscape:stockid="Arrow2Lend">
      <path
         transform="matrix(-1.1,0,0,-1.1,-1.1,0)"
         d="M 8.7185878,4.0337352 -2.2072895,0.01601326 8.7185884,-4.0017078 c -1.7454984,2.3720609 -1.7354408,5.6174519 -6e-7,8.035443 z"
         style="fill:#000000;fill-opacity:1;fill-rule:evenodd;stroke:#000000;stroke-width:0.625;stroke-linejoin:round;stroke-opacity:1"
         id="path6121-8"
         inkscape:connector-curvature="0" />
    </marker>
    <marker
       inkscape:isstock="true"
       style="overflow:visible"
       id="marker6089-7"
       refX="0"
       refY="0"
       orient="auto"
       inkscape:stockid="Arrow2Lend">
      <path
         transform="matrix(-1.1,0,0,-1.1,-1.1,0)"
         d="M 8.7185878,4.0337352 -2.2072895,0.01601326 8.7185884,-4.0017078 c -1.7454984,2.3720609 -1.7354408,5.6174519 -6e-7,8.035443 z"
         style="fill:#000000;fill-opacity:1;fill-rule:evenodd;stroke:#000000;stroke-width:0.625;stroke-linejoin:round;stroke-opacity:1"
         id="path6087-2"
         inkscape:connector-curvature="0" />
    </marker>
    <marker
       inkscape:isstock="true"
       style="overflow:visible"
       id="marker6123-9-3"
       refX="0"
       refY="0"
       orient="auto"
       inkscape:stockid="Arrow2Lend">
      <path
         transform="matrix(-1.1,0,0,-1.1,-1.1,0)"
         d="M 8.7185878,4.0337352 -2.2072895,0.01601326 8.7185884,-4.0017078 c -1.7454984,2.3720609 -1.7354408,5.6174519 -6e-7,8.035443 z"
         style="fill:#000000;fill-opacity:1;fill-rule:evenodd;stroke:#000000;stroke-width:0.625;stroke-linejoin:round;stroke-opacity:1"
         id="path6121-8-8"
         inkscape:connector-curvature="0" />
    </marker>
    <marker
       inkscape:isstock="true"
       style="overflow:visible"
       id="marker6089-7-0"
       refX="0"
       refY="0"
       orient="auto"
       inkscape:stockid="Arrow2Lend">
      <path
         transform="matrix(-1.1,0,0,-1.1,-1.1,0)"
         d="M 8.7185878,4.0337352 -2.2072895,0.01601326 8.7185884,-4.0017078 c -1.7454984,2.3720609 -1.7354408,5.6174519 -6e-7,8.035443 z"
         style="fill:#000000;fill-opacity:1;fill-rule:evenodd;stroke:#000000;stroke-width:0.625;stroke-linejoin:round;stroke-opacity:1"
         id="path6087-2-4"
         inkscape:connector-curvature="0" />
    </marker>
    <marker
       inkscape:isstock="true"
       style="overflow:visible"
       id="marker6089-7-0-3"
       refX="0"
       refY="0"
       orient="auto"
       inkscape:stockid="Arrow2Lend">
      <path
         transform="matrix(-1.1,0,0,-1.1,-1.1,0)"
         d="M 8.7185878,4.0337352 -2.2072895,0.01601326 8.7185884,-4.0017078 c -1.7454984,2.3720609 -1.7354408,5.6174519 -6e-7,8.035443 z"
         style="fill:#000000;fill-opacity:1;fill-rule:evenodd;stroke:#000000;stroke-width:0.625;stroke-linejoin:round;stroke-opacity:1"
         id="path6087-2-4-2"
         inkscape:connector-curvature="0" />
    </marker>
    <marker
       inkscape:isstock="true"
       style="overflow:visible"
       id="marker6089-7-2"
       refX="0"
       refY="0"
       orient="auto"
       inkscape:stockid="Arrow2Lend">
      <path
         transform="matrix(-1.1,0,0,-1.1,-1.1,0)"
         d="M 8.7185878,4.0337352 -2.2072895,0.01601326 8.7185884,-4.0017078 c -1.7454984,2.3720609 -1.7354408,5.6174519 -6e-7,8.035443 z"
         style="fill:#000000;fill-opacity:1;fill-rule:evenodd;stroke:#000000;stroke-width:0.625;stroke-linejoin:round;stroke-opacity:1"
         id="path6087-2-6"
         inkscape:connector-curvature="0" />
    </marker>
    <marker
       inkscape:isstock="true"
       style="overflow:visible"
       id="marker6123-9-3-9"
       refX="0"
       refY="0"
       orient="auto"
       inkscape:stockid="Arrow2Lend">
      <path
         transform="matrix(-1.1,0,0,-1.1,-1.1,0)"
         d="M 8.7185878,4.0337352 -2.2072895,0.01601326 8.7185884,-4.0017078 c -1.7454984,2.3720609 -1.7354408,5.6174519 -6e-7,8.035443 z"
         style="fill:#000000;fill-opacity:1;fill-rule:evenodd;stroke:#000000;stroke-width:0.625;stroke-linejoin:round;stroke-opacity:1"
         id="path6121-8-8-8"
         inkscape:connector-curvature="0" />
    </marker>
    <marker
       inkscape:isstock="true"
       style="overflow:visible"
       id="marker6123-9-3-9-4"
       refX="0"
       refY="0"
       orient="auto"
       inkscape:stockid="Arrow2Lend">
      <path
         transform="matrix(-1.1,0,0,-1.1,-1.1,0)"
         d="M 8.7185878,4.0337352 -2.2072895,0.01601326 8.7185884,-4.0017078 c -1.7454984,2.3720609 -1.7354408,5.6174519 -6e-7,8.035443 z"
         style="fill:#000000;fill-opacity:1;fill-rule:evenodd;stroke:#000000;stroke-width:0.625;stroke-linejoin:round;stroke-opacity:1"
         id="path6121-8-8-8-7"
         inkscape:connector-curvature="0" />
    </marker>
    <marker
       inkscape:isstock="true"
       style="overflow:visible"
       id="marker6123-9-3-9-4-8"
       refX="0"
       refY="0"
       orient="auto"
       inkscape:stockid="Arrow2Lend">
      <path
         transform="matrix(-1.1,0,0,-1.1,-1.1,0)"
         d="M 8.7185878,4.0337352 -2.2072895,0.01601326 8.7185884,-4.0017078 c -1.7454984,2.3720609 -1.7354408,5.6174519 -6e-7,8.035443 z"
         style="fill:#000000;fill-opacity:1;fill-rule:evenodd;stroke:#000000;stroke-width:0.625;stroke-linejoin:round;stroke-opacity:1"
         id="path6121-8-8-8-7-7"
         inkscape:connector-curvature="0" />
    </marker>
    <marker
       inkscape:isstock="true"
       style="overflow:visible"
       id="marker6123-9-3-9-2"
       refX="0"
       refY="0"
       orient="auto"
       inkscape:stockid="Arrow2Lend">
      <path
         transform="matrix(-1.1,0,0,-1.1,-1.1,0)"
         d="M 8.7185878,4.0337352 -2.2072895,0.01601326 8.7185884,-4.0017078 c -1.7454984,2.3720609 -1.7354408,5.6174519 -6e-7,8.035443 z"
         style="fill:#000000;fill-opacity:1;fill-rule:evenodd;stroke:#000000;stroke-width:0.625;stroke-linejoin:round;stroke-opacity:1"
         id="path6121-8-8-8-4"
         inkscape:connector-curvature="0" />
    </marker>
    <marker
       inkscape:isstock="true"
       style="overflow:visible"
       id="marker6123-9-3-9-26"
       refX="0"
       refY="0"
       orient="auto"
       inkscape:stockid="Arrow2Lend">
      <path
         transform="matrix(-1.1,0,0,-1.1,-1.1,0)"
         d="M 8.7185878,4.0337352 -2.2072895,0.01601326 8.7185884,-4.0017078 c -1.7454984,2.3720609 -1.7354408,5.6174519 -6e-7,8.035443 z"
         style="fill:#000000;fill-opacity:1;fill-rule:evenodd;stroke:#000000;stroke-width:0.625;stroke-linejoin:round;stroke-opacity:1"
         id="path6121-8-8-8-5"
         inkscape:connector-curvature="0" />
    </marker>
    <marker
       inkscape:isstock="true"
       style="overflow:visible"
       id="marker6123-9-3-9-8"
       refX="0"
       refY="0"
       orient="auto"
       inkscape:stockid="Arrow2Lend">
      <path
         transform="matrix(-1.1,0,0,-1.1,-1.1,0)"
         d="M 8.7185878,4.0337352 -2.2072895,0.01601326 8.7185884,-4.0017078 c -1.7454984,2.3720609 -1.7354408,5.6174519 -6e-7,8.035443 z"
         style="fill:#000000;fill-opacity:1;fill-rule:evenodd;stroke:#000000;stroke-width:0.625;stroke-linejoin:round;stroke-opacity:1"
         id="path6121-8-8-8-45"
         inkscape:connector-curvature="0" />
    </marker>
    <marker
       inkscape:isstock="true"
       style="overflow:visible"
       id="marker6123-9-3-9-4-7"
       refX="0"
       refY="0"
       orient="auto"
       inkscape:stockid="Arrow2Lend">
      <path
         transform="matrix(-1.1,0,0,-1.1,-1.1,0)"
         d="M 8.7185878,4.0337352 -2.2072895,0.01601326 8.7185884,-4.0017078 c -1.7454984,2.3720609 -1.7354408,5.6174519 -6e-7,8.035443 z"
         style="fill:#000000;fill-opacity:1;fill-rule:evenodd;stroke:#000000;stroke-width:0.625;stroke-linejoin:round;stroke-opacity:1"
         id="path6121-8-8-8-7-3"
         inkscape:connector-curvature="0" />
    </marker>
    <marker
       inkscape:isstock="true"
       style="overflow:visible"
       id="marker6123-9-3-9-4-1"
       refX="0"
       refY="0"
       orient="auto"
       inkscape:stockid="Arrow2Lend">
      <path
         transform="matrix(-1.1,0,0,-1.1,-1.1,0)"
         d="M 8.7185878,4.0337352 -2.2072895,0.01601326 8.7185884,-4.0017078 c -1.7454984,2.3720609 -1.7354408,5.6174519 -6e-7,8.035443 z"
         style="fill:#000000;fill-opacity:1;fill-rule:evenodd;stroke:#000000;stroke-width:0.625;stroke-linejoin:round;stroke-opacity:1"
         id="path6121-8-8-8-7-75"
         inkscape:connector-curvature="0" />
    </marker>
    <marker
       inkscape:isstock="true"
       style="overflow:visible"
       id="marker6123-9-3-9-46"
       refX="0"
       refY="0"
       orient="auto"
       inkscape:stockid="Arrow2Lend">
      <path
         transform="matrix(-1.1,0,0,-1.1,-1.1,0)"
         d="M 8.7185878,4.0337352 -2.2072895,0.01601326 8.7185884,-4.0017078 c -1.7454984,2.3720609 -1.7354408,5.6174519 -6e-7,8.035443 z"
         style="fill:#000000;fill-opacity:1;fill-rule:evenodd;stroke:#000000;stroke-width:0.625;stroke-linejoin:round;stroke-opacity:1"
         id="path6121-8-8-8-9"
         inkscape:connector-curvature="0" />
    </marker>
    <marker
       inkscape:isstock="true"
       style="overflow:visible"
       id="marker6123-9-3-9-4-4"
       refX="0"
       refY="0"
       orient="auto"
       inkscape:stockid="Arrow2Lend">
      <path
         transform="matrix(-1.1,0,0,-1.1,-1.1,0)"
         d="M 8.7185878,4.0337352 -2.2072895,0.01601326 8.7185884,-4.0017078 c -1.7454984,2.3720609 -1.7354408,5.6174519 -6e-7,8.035443 z"
         style="fill:#000000;fill-opacity:1;fill-rule:evenodd;stroke:#000000;stroke-width:0.625;stroke-linejoin:round;stroke-opacity:1"
         id="path6121-8-8-8-7-6"
         inkscape:connector-curvature="0" />
    </marker>
    <marker
       inkscape:isstock="true"
       style="overflow:visible"
       id="marker6123-9-3-9-9"
       refX="0"
       refY="0"
       orient="auto"
       inkscape:stockid="Arrow2Lend">
      <path
         transform="matrix(-1.1,0,0,-1.1,-1.1,0)"
         d="M 8.7185878,4.0337352 -2.2072895,0.01601326 8.7185884,-4.0017078 c -1.7454984,2.3720609 -1.7354408,5.6174519 -6e-7,8.035443 z"
         style="fill:#000000;fill-opacity:1;fill-rule:evenodd;stroke:#000000;stroke-width:0.625;stroke-linejoin:round;stroke-opacity:1"
         id="path6121-8-8-8-3"
         inkscape:connector-curvature="0" />
    </marker>
    <marker
       inkscape:isstock="true"
       style="overflow:visible"
       id="marker6123-9-3-9-6"
       refX="0"
       refY="0"
       orient="auto"
       inkscape:stockid="Arrow2Lend">
      <path
         transform="matrix(-1.1,0,0,-1.1,-1.1,0)"
         d="M 8.7185878,4.0337352 -2.2072895,0.01601326 8.7185884,-4.0017078 c -1.7454984,2.3720609 -1.7354408,5.6174519 -6e-7,8.035443 z"
         style="fill:#000000;fill-opacity:1;fill-rule:evenodd;stroke:#000000;stroke-width:0.625;stroke-linejoin:round;stroke-opacity:1"
         id="path6121-8-8-8-74"
         inkscape:connector-curvature="0" />
    </marker>
    <marker
       inkscape:isstock="true"
       style="overflow:visible"
       id="marker6123-9-3-9-3"
       refX="0"
       refY="0"
       orient="auto"
       inkscape:stockid="Arrow2Lend">
      <path
         transform="matrix(-1.1,0,0,-1.1,-1.1,0)"
         d="M 8.7185878,4.0337352 -2.2072895,0.01601326 8.7185884,-4.0017078 c -1.7454984,2.3720609 -1.7354408,5.6174519 -6e-7,8.035443 z"
         style="fill:#000000;fill-opacity:1;fill-rule:evenodd;stroke:#000000;stroke-width:0.625;stroke-linejoin:round;stroke-opacity:1"
         id="path6121-8-8-8-49"
         inkscape:connector-curvature="0" />
    </marker>
    <marker
       inkscape:isstock="true"
       style="overflow:visible"
       id="marker6123-9-3-9-3-3"
       refX="0"
       refY="0"
       orient="auto"
       inkscape:stockid="Arrow2Lend">
      <path
         transform="matrix(-1.1,0,0,-1.1,-1.1,0)"
         d="M 8.7185878,4.0337352 -2.2072895,0.01601326 8.7185884,-4.0017078 c -1.7454984,2.3720609 -1.7354408,5.6174519 -6e-7,8.035443 z"
         style="fill:#000000;fill-opacity:1;fill-rule:evenodd;stroke:#000000;stroke-width:0.625;stroke-linejoin:round;stroke-opacity:1"
         id="path6121-8-8-8-49-2"
         inkscape:connector-curvature="0" />
    </marker>
    <marker
       inkscape:isstock="true"
       style="overflow:visible"
       id="marker6123-9-3-9-4-80"
       refX="0"
       refY="0"
       orient="auto"
       inkscape:stockid="Arrow2Lend">
      <path
         transform="matrix(-1.1,0,0,-1.1,-1.1,0)"
         d="M 8.7185878,4.0337352 -2.2072895,0.01601326 8.7185884,-4.0017078 c -1.7454984,2.3720609 -1.7354408,5.6174519 -6e-7,8.035443 z"
         style="fill:#000000;fill-opacity:1;fill-rule:evenodd;stroke:#000000;stroke-width:0.625;stroke-linejoin:round;stroke-opacity:1"
         id="path6121-8-8-8-7-1"
         inkscape:connector-curvature="0" />
    </marker>
    <marker
       inkscape:isstock="true"
       style="overflow:visible"
       id="marker6123-9-3-9-6-9"
       refX="0"
       refY="0"
       orient="auto"
       inkscape:stockid="Arrow2Lend">
      <path
         transform="matrix(-1.1,0,0,-1.1,-1.1,0)"
         d="M 8.7185878,4.0337352 -2.2072895,0.01601326 8.7185884,-4.0017078 c -1.7454984,2.3720609 -1.7354408,5.6174519 -6e-7,8.035443 z"
         style="fill:#000000;fill-opacity:1;fill-rule:evenodd;stroke:#000000;stroke-width:0.625;stroke-linejoin:round;stroke-opacity:1"
         id="path6121-8-8-8-74-3"
         inkscape:connector-curvature="0" />
    </marker>
    <marker
       inkscape:isstock="true"
       style="overflow:visible"
       id="marker6123-9-3-9-4-3"
       refX="0"
       refY="0"
       orient="auto"
       inkscape:stockid="Arrow2Lend">
      <path
         transform="matrix(-1.1,0,0,-1.1,-1.1,0)"
         d="M 8.7185878,4.0337352 -2.2072895,0.01601326 8.7185884,-4.0017078 c -1.7454984,2.3720609 -1.7354408,5.6174519 -6e-7,8.035443 z"
         style="fill:#000000;fill-opacity:1;fill-rule:evenodd;stroke:#000000;stroke-width:0.625;stroke-linejoin:round;stroke-opacity:1"
         id="path6121-8-8-8-7-36"
         inkscape:connector-curvature="0" />
    </marker>
    <marker
       inkscape:isstock="true"
       style="overflow:visible"
       id="marker6123-9-3-9-4-2"
       refX="0"
       refY="0"
       orient="auto"
       inkscape:stockid="Arrow2Lend">
      <path
         transform="matrix(-1.1,0,0,-1.1,-1.1,0)"
         d="M 8.7185878,4.0337352 -2.2072895,0.01601326 8.7185884,-4.0017078 c -1.7454984,2.3720609 -1.7354408,5.6174519 -6e-7,8.035443 z"
         style="fill:#000000;fill-opacity:1;fill-rule:evenodd;stroke:#000000;stroke-width:0.625;stroke-linejoin:round;stroke-opacity:1"
         id="path6121-8-8-8-7-5"
         inkscape:connector-curvature="0" />
    </marker>
    <marker
       inkscape:isstock="true"
       style="overflow:visible"
       id="marker6123-9-3-9-3-0"
       refX="0"
       refY="0"
       orient="auto"
       inkscape:stockid="Arrow2Lend">
      <path
         transform="matrix(-1.1,0,0,-1.1,-1.1,0)"
         d="M 8.7185878,4.0337352 -2.2072895,0.01601326 8.7185884,-4.0017078 c -1.7454984,2.3720609 -1.7354408,5.6174519 -6e-7,8.035443 z"
         style="fill:#000000;fill-opacity:1;fill-rule:evenodd;stroke:#000000;stroke-width:0.625;stroke-linejoin:round;stroke-opacity:1"
         id="path6121-8-8-8-49-4"
         inkscape:connector-curvature="0" />
    </marker>
    <marker
       inkscape:isstock="true"
       style="overflow:visible"
       id="marker6123-9-3-9-4-6"
       refX="0"
       refY="0"
       orient="auto"
       inkscape:stockid="Arrow2Lend">
      <path
         transform="matrix(-1.1,0,0,-1.1,-1.1,0)"
         d="M 8.7185878,4.0337352 -2.2072895,0.01601326 8.7185884,-4.0017078 c -1.7454984,2.3720609 -1.7354408,5.6174519 -6e-7,8.035443 z"
         style="fill:#000000;fill-opacity:1;fill-rule:evenodd;stroke:#000000;stroke-width:0.625;stroke-linejoin:round;stroke-opacity:1"
         id="path6121-8-8-8-7-65"
         inkscape:connector-curvature="0" />
    </marker>
    <marker
       inkscape:isstock="true"
       style="overflow:visible"
       id="marker6123-9-3-9-4-6-0"
       refX="0"
       refY="0"
       orient="auto"
       inkscape:stockid="Arrow2Lend">
      <path
         transform="matrix(-1.1,0,0,-1.1,-1.1,0)"
         d="M 8.7185878,4.0337352 -2.2072895,0.01601326 8.7185884,-4.0017078 c -1.7454984,2.3720609 -1.7354408,5.6174519 -6e-7,8.035443 z"
         style="fill:#000000;fill-opacity:1;fill-rule:evenodd;stroke:#000000;stroke-width:0.625;stroke-linejoin:round;stroke-opacity:1"
         id="path6121-8-8-8-7-65-3"
         inkscape:connector-curvature="0" />
    </marker>
    <marker
       inkscape:isstock="true"
       style="overflow:visible"
       id="marker6123-9-3-9-3-0-6"
       refX="0"
       refY="0"
       orient="auto"
       inkscape:stockid="Arrow2Lend">
      <path
         transform="matrix(-1.1,0,0,-1.1,-1.1,0)"
         d="M 8.7185878,4.0337352 -2.2072895,0.01601326 8.7185884,-4.0017078 c -1.7454984,2.3720609 -1.7354408,5.6174519 -6e-7,8.035443 z"
         style="fill:#000000;fill-opacity:1;fill-rule:evenodd;stroke:#000000;stroke-width:0.625;stroke-linejoin:round;stroke-opacity:1"
         id="path6121-8-8-8-49-4-0"
         inkscape:connector-curvature="0" />
    </marker>
    <marker
       inkscape:isstock="true"
       style="overflow:visible"
       id="marker6123-9-3-9-3-0-6-9"
       refX="0"
       refY="0"
       orient="auto"
       inkscape:stockid="Arrow2Lend">
      <path
         transform="matrix(-1.1,0,0,-1.1,-1.1,0)"
         d="M 8.7185878,4.0337352 -2.2072895,0.01601326 8.7185884,-4.0017078 c -1.7454984,2.3720609 -1.7354408,5.6174519 -6e-7,8.035443 z"
         style="fill:#000000;fill-opacity:1;fill-rule:evenodd;stroke:#000000;stroke-width:0.625;stroke-linejoin:round;stroke-opacity:1"
         id="path6121-8-8-8-49-4-0-0"
         inkscape:connector-curvature="0" />
    </marker>
    <marker
       inkscape:isstock="true"
       style="overflow:visible"
       id="marker6123-9-3-9-3-0-6-9-5"
       refX="0"
       refY="0"
       orient="auto"
       inkscape:stockid="Arrow2Lend">
      <path
         transform="matrix(-1.1,0,0,-1.1,-1.1,0)"
         d="M 8.7185878,4.0337352 -2.2072895,0.01601326 8.7185884,-4.0017078 c -1.7454984,2.3720609 -1.7354408,5.6174519 -6e-7,8.035443 z"
         style="fill:#000000;fill-opacity:1;fill-rule:evenodd;stroke:#000000;stroke-width:0.625;stroke-linejoin:round;stroke-opacity:1"
         id="path6121-8-8-8-49-4-0-0-8"
         inkscape:connector-curvature="0" />
    </marker>
    <marker
       inkscape:isstock="true"
       style="overflow:visible"
       id="marker6123-9-3-9-3-0-68"
       refX="0"
       refY="0"
       orient="auto"
       inkscape:stockid="Arrow2Lend">
      <path
         transform="matrix(-1.1,0,0,-1.1,-1.1,0)"
         d="M 8.7185878,4.0337352 -2.2072895,0.01601326 8.7185884,-4.0017078 c -1.7454984,2.3720609 -1.7354408,5.6174519 -6e-7,8.035443 z"
         style="fill:#000000;fill-opacity:1;fill-rule:evenodd;stroke:#000000;stroke-width:0.625;stroke-linejoin:round;stroke-opacity:1"
         id="path6121-8-8-8-49-4-1"
         inkscape:connector-curvature="0" />
    </marker>
    <marker
       inkscape:isstock="true"
       style="overflow:visible"
       id="marker6123-9-3-9-3-0-6-9-5-6"
       refX="0"
       refY="0"
       orient="auto"
       inkscape:stockid="Arrow2Lend">
      <path
         transform="matrix(-1.1,0,0,-1.1,-1.1,0)"
         d="M 8.7185878,4.0337352 -2.2072895,0.01601326 8.7185884,-4.0017078 c -1.7454984,2.3720609 -1.7354408,5.6174519 -6e-7,8.035443 z"
         style="fill:#000000;fill-opacity:1;fill-rule:evenodd;stroke:#000000;stroke-width:0.625;stroke-linejoin:round;stroke-opacity:1"
         id="path6121-8-8-8-49-4-0-0-8-2"
         inkscape:connector-curvature="0" />
    </marker>
    <marker
       inkscape:isstock="true"
       style="overflow:visible"
       id="marker6123-9-3-9-4-6-8"
       refX="0"
       refY="0"
       orient="auto"
       inkscape:stockid="Arrow2Lend">
      <path
         transform="matrix(-1.1,0,0,-1.1,-1.1,0)"
         d="M 8.7185878,4.0337352 -2.2072895,0.01601326 8.7185884,-4.0017078 c -1.7454984,2.3720609 -1.7354408,5.6174519 -6e-7,8.035443 z"
         style="fill:#000000;fill-opacity:1;fill-rule:evenodd;stroke:#000000;stroke-width:0.625;stroke-linejoin:round;stroke-opacity:1"
         id="path6121-8-8-8-7-65-0"
         inkscape:connector-curvature="0" />
    </marker>
    <marker
       inkscape:isstock="true"
       style="overflow:visible"
       id="marker6123-9-3-9-4-6-86"
       refX="0"
       refY="0"
       orient="auto"
       inkscape:stockid="Arrow2Lend">
      <path
         transform="matrix(-1.1,0,0,-1.1,-1.1,0)"
         d="M 8.7185878,4.0337352 -2.2072895,0.01601326 8.7185884,-4.0017078 c -1.7454984,2.3720609 -1.7354408,5.6174519 -6e-7,8.035443 z"
         style="fill:#000000;fill-opacity:1;fill-rule:evenodd;stroke:#000000;stroke-width:0.625;stroke-linejoin:round;stroke-opacity:1"
         id="path6121-8-8-8-7-65-8"
         inkscape:connector-curvature="0" />
    </marker>
    <marker
       inkscape:isstock="true"
       style="overflow:visible"
       id="marker6123-9-3-9-4-6-8-9"
       refX="0"
       refY="0"
       orient="auto"
       inkscape:stockid="Arrow2Lend">
      <path
         transform="matrix(-1.1,0,0,-1.1,-1.1,0)"
         d="M 8.7185878,4.0337352 -2.2072895,0.01601326 8.7185884,-4.0017078 c -1.7454984,2.3720609 -1.7354408,5.6174519 -6e-7,8.035443 z"
         style="fill:#000000;fill-opacity:1;fill-rule:evenodd;stroke:#000000;stroke-width:0.625;stroke-linejoin:round;stroke-opacity:1"
         id="path6121-8-8-8-7-65-0-1"
         inkscape:connector-curvature="0" />
    </marker>
    <marker
       inkscape:isstock="true"
       style="overflow:visible"
       id="marker6123-9-3-9-4-6-86-2"
       refX="0"
       refY="0"
       orient="auto"
       inkscape:stockid="Arrow2Lend">
      <path
         transform="matrix(-1.1,0,0,-1.1,-1.1,0)"
         d="M 8.7185878,4.0337352 -2.2072895,0.01601326 8.7185884,-4.0017078 c -1.7454984,2.3720609 -1.7354408,5.6174519 -6e-7,8.035443 z"
         style="fill:#000000;fill-opacity:1;fill-rule:evenodd;stroke:#000000;stroke-width:0.625;stroke-linejoin:round;stroke-opacity:1"
         id="path6121-8-8-8-7-65-8-1"
         inkscape:connector-curvature="0" />
    </marker>
    <marker
       inkscape:isstock="true"
       style="overflow:visible"
       id="marker6123-9-3-9-3-0-1"
       refX="0"
       refY="0"
       orient="auto"
       inkscape:stockid="Arrow2Lend">
      <path
         transform="matrix(-1.1,0,0,-1.1,-1.1,0)"
         d="M 8.7185878,4.0337352 -2.2072895,0.01601326 8.7185884,-4.0017078 c -1.7454984,2.3720609 -1.7354408,5.6174519 -6e-7,8.035443 z"
         style="fill:#000000;fill-opacity:1;fill-rule:evenodd;stroke:#000000;stroke-width:0.625;stroke-linejoin:round;stroke-opacity:1"
         id="path6121-8-8-8-49-4-19"
         inkscape:connector-curvature="0" />
    </marker>
    <marker
       inkscape:isstock="true"
       style="overflow:visible"
       id="marker6123-9-3-9-4-6-3"
       refX="0"
       refY="0"
       orient="auto"
       inkscape:stockid="Arrow2Lend">
      <path
         transform="matrix(-1.1,0,0,-1.1,-1.1,0)"
         d="M 8.7185878,4.0337352 -2.2072895,0.01601326 8.7185884,-4.0017078 c -1.7454984,2.3720609 -1.7354408,5.6174519 -6e-7,8.035443 z"
         style="fill:#000000;fill-opacity:1;fill-rule:evenodd;stroke:#000000;stroke-width:0.625;stroke-linejoin:round;stroke-opacity:1"
         id="path6121-8-8-8-7-65-9"
         inkscape:connector-curvature="0" />
    </marker>
    <marker
       inkscape:isstock="true"
       style="overflow:visible"
       id="marker6123-9-3-9-3-0-6-9-5-69"
       refX="0"
       refY="0"
       orient="auto"
       inkscape:stockid="Arrow2Lend">
      <path
         transform="matrix(-1.1,0,0,-1.1,-1.1,0)"
         d="M 8.7185878,4.0337352 -2.2072895,0.01601326 8.7185884,-4.0017078 c -1.7454984,2.3720609 -1.7354408,5.6174519 -6e-7,8.035443 z"
         style="fill:#000000;fill-opacity:1;fill-rule:evenodd;stroke:#000000;stroke-width:0.625;stroke-linejoin:round;stroke-opacity:1"
         id="path6121-8-8-8-49-4-0-0-8-1"
         inkscape:connector-curvature="0" />
    </marker>
    <marker
       inkscape:isstock="true"
       style="overflow:visible"
       id="marker6123-9-3-9-4-6-8-0"
       refX="0"
       refY="0"
       orient="auto"
       inkscape:stockid="Arrow2Lend">
      <path
         transform="matrix(-1.1,0,0,-1.1,-1.1,0)"
         d="M 8.7185878,4.0337352 -2.2072895,0.01601326 8.7185884,-4.0017078 c -1.7454984,2.3720609 -1.7354408,5.6174519 -6e-7,8.035443 z"
         style="fill:#000000;fill-opacity:1;fill-rule:evenodd;stroke:#000000;stroke-width:0.625;stroke-linejoin:round;stroke-opacity:1"
         id="path6121-8-8-8-7-65-0-2"
         inkscape:connector-curvature="0" />
    </marker>
    <marker
       inkscape:isstock="true"
       style="overflow:visible"
       id="marker6123-9-3-9-4-6-86-9"
       refX="0"
       refY="0"
       orient="auto"
       inkscape:stockid="Arrow2Lend">
      <path
         transform="matrix(-1.1,0,0,-1.1,-1.1,0)"
         d="M 8.7185878,4.0337352 -2.2072895,0.01601326 8.7185884,-4.0017078 c -1.7454984,2.3720609 -1.7354408,5.6174519 -6e-7,8.035443 z"
         style="fill:#000000;fill-opacity:1;fill-rule:evenodd;stroke:#000000;stroke-width:0.625;stroke-linejoin:round;stroke-opacity:1"
         id="path6121-8-8-8-7-65-8-0"
         inkscape:connector-curvature="0" />
    </marker>
    <marker
       inkscape:isstock="true"
       style="overflow:visible"
       id="marker6123-9-3-9-4-6-8-9-9"
       refX="0"
       refY="0"
       orient="auto"
       inkscape:stockid="Arrow2Lend">
      <path
         transform="matrix(-1.1,0,0,-1.1,-1.1,0)"
         d="M 8.7185878,4.0337352 -2.2072895,0.01601326 8.7185884,-4.0017078 c -1.7454984,2.3720609 -1.7354408,5.6174519 -6e-7,8.035443 z"
         style="fill:#000000;fill-opacity:1;fill-rule:evenodd;stroke:#000000;stroke-width:0.625;stroke-linejoin:round;stroke-opacity:1"
         id="path6121-8-8-8-7-65-0-1-0"
         inkscape:connector-curvature="0" />
    </marker>
    <marker
       inkscape:isstock="true"
       style="overflow:visible"
       id="marker6123-9-3-9-4-6-86-2-9"
       refX="0"
       refY="0"
       orient="auto"
       inkscape:stockid="Arrow2Lend">
      <path
         transform="matrix(-1.1,0,0,-1.1,-1.1,0)"
         d="M 8.7185878,4.0337352 -2.2072895,0.01601326 8.7185884,-4.0017078 c -1.7454984,2.3720609 -1.7354408,5.6174519 -6e-7,8.035443 z"
         style="fill:#000000;fill-opacity:1;fill-rule:evenodd;stroke:#000000;stroke-width:0.625;stroke-linejoin:round;stroke-opacity:1"
         id="path6121-8-8-8-7-65-8-1-1"
         inkscape:connector-curvature="0" />
    </marker>
    <marker
       inkscape:isstock="true"
       style="overflow:visible"
       id="marker6123-9-3-9-4-6-4"
       refX="0"
       refY="0"
       orient="auto"
       inkscape:stockid="Arrow2Lend">
      <path
         transform="matrix(-1.1,0,0,-1.1,-1.1,0)"
         d="M 8.7185878,4.0337352 -2.2072895,0.01601326 8.7185884,-4.0017078 c -1.7454984,2.3720609 -1.7354408,5.6174519 -6e-7,8.035443 z"
         style="fill:#000000;fill-opacity:1;fill-rule:evenodd;stroke:#000000;stroke-width:0.625;stroke-linejoin:round;stroke-opacity:1"
         id="path6121-8-8-8-7-65-5"
         inkscape:connector-curvature="0" />
    </marker>
    <marker
       inkscape:isstock="true"
       style="overflow:visible"
       id="marker6123-9-3-9-4-6-86-2-4"
       refX="0"
       refY="0"
       orient="auto"
       inkscape:stockid="Arrow2Lend">
      <path
         transform="matrix(-1.1,0,0,-1.1,-1.1,0)"
         d="M 8.7185878,4.0337352 -2.2072895,0.01601326 8.7185884,-4.0017078 c -1.7454984,2.3720609 -1.7354408,5.6174519 -6e-7,8.035443 z"
         style="fill:#000000;fill-opacity:1;fill-rule:evenodd;stroke:#000000;stroke-width:0.625;stroke-linejoin:round;stroke-opacity:1"
         id="path6121-8-8-8-7-65-8-1-2"
         inkscape:connector-curvature="0" />
    </marker>
    <marker
       inkscape:isstock="true"
       style="overflow:visible"
       id="marker6123-9-3-9-4-6-86-2-6"
       refX="0"
       refY="0"
       orient="auto"
       inkscape:stockid="Arrow2Lend">
      <path
         transform="matrix(-1.1,0,0,-1.1,-1.1,0)"
         d="M 8.7185878,4.0337352 -2.2072895,0.01601326 8.7185884,-4.0017078 c -1.7454984,2.3720609 -1.7354408,5.6174519 -6e-7,8.035443 z"
         style="fill:#000000;fill-opacity:1;fill-rule:evenodd;stroke:#000000;stroke-width:0.625;stroke-linejoin:round;stroke-opacity:1"
         id="path6121-8-8-8-7-65-8-1-8"
         inkscape:connector-curvature="0" />
    </marker>
    <marker
       inkscape:isstock="true"
       style="overflow:visible"
       id="marker6123-9-3-9-3-0-6-9-5-8"
       refX="0"
       refY="0"
       orient="auto"
       inkscape:stockid="Arrow2Lend">
      <path
         transform="matrix(-1.1,0,0,-1.1,-1.1,0)"
         d="M 8.7185878,4.0337352 -2.2072895,0.01601326 8.7185884,-4.0017078 c -1.7454984,2.3720609 -1.7354408,5.6174519 -6e-7,8.035443 z"
         style="fill:#000000;fill-opacity:1;fill-rule:evenodd;stroke:#000000;stroke-width:0.625;stroke-linejoin:round;stroke-opacity:1"
         id="path6121-8-8-8-49-4-0-0-8-4"
         inkscape:connector-curvature="0" />
    </marker>
    <marker
       inkscape:isstock="true"
       style="overflow:visible"
       id="marker6123-9-3-9-4-6-86-1"
       refX="0"
       refY="0"
       orient="auto"
       inkscape:stockid="Arrow2Lend">
      <path
         transform="matrix(-1.1,0,0,-1.1,-1.1,0)"
         d="M 8.7185878,4.0337352 -2.2072895,0.01601326 8.7185884,-4.0017078 c -1.7454984,2.3720609 -1.7354408,5.6174519 -6e-7,8.035443 z"
         style="fill:#000000;fill-opacity:1;fill-rule:evenodd;stroke:#000000;stroke-width:0.625;stroke-linejoin:round;stroke-opacity:1"
         id="path6121-8-8-8-7-65-8-14"
         inkscape:connector-curvature="0" />
    </marker>
  </defs>
  <sodipodi:namedview
     pagecolor="#ffffff"
     bordercolor="#666666"
     borderopacity="1"
     objecttolerance="10"
     gridtolerance="10"
     guidetolerance="10"
     inkscape:pageopacity="0"
     inkscape:pageshadow="2"
     inkscape:window-width="2560"
     inkscape:window-height="1377"
     id="namedview5562"
     showgrid="false"
     inkscape:zoom="1.375862"
     inkscape:cx="156.31927"
     inkscape:cy="-78.155702"
     inkscape:window-x="-8"
     inkscape:window-y="-8"
     inkscape:window-maximized="1"
     inkscape:current-layer="svg5560"
     showguides="false" />
  <g
     id="g5079"
     transform="translate(555.44427,1435.213)" />
  <flowRoot
     xml:space="preserve"
     id="flowRoot3587"
     style="font-style:normal;font-weight:normal;font-size:18.66666603px;line-height:1.25;font-family:sans-serif;letter-spacing:0px;word-spacing:0px;fill:#000000;fill-opacity:1;stroke:none"
     transform="translate(473.54313,1224.5931)"><flowRegion
       id="flowRegion3589"><rect
         id="rect3591"
         width="71.951218"
         height="33.919861"
         x="49.337978"
         y="49.613239" /></flowRegion><flowPara
       id="flowPara3593" /></flowRoot>  <path
     inkscape:connector-curvature="0"
     style="fill:none;stroke:#000000;stroke-width:2;stroke-miterlimit:4;stroke-dasharray:none;stroke-dashoffset:0;marker-end:url(#marker6123-9-3-9-4-6-86)"
     d="M 216.6306,46.343285 H 466.61806"
     id="path260-8-3-9-7-2-7"
     sodipodi:nodetypes="cc" />
  <g
     aria-label="Mechanism"
     style="font-style:normal;font-variant:normal;font-weight:normal;font-stretch:normal;font-size:32px;line-height:1.25;font-family:Quattrocento;-inkscape-font-specification:'Quattrocento, Normal';font-variant-ligatures:normal;font-variant-caps:normal;font-variant-numeric:normal;font-feature-settings:normal;text-align:center;letter-spacing:0px;word-spacing:0px;writing-mode:lr-tb;text-anchor:middle;fill:#000000;fill-opacity:1;stroke:none"
     id="text4126-2-1-5-6-5-9-3-6">
    <path
       d="m 283.44743,28.274977 q -0.224,0 -0.736,-0.032 -0.512,-0.032 -1.056,-0.064 -0.544,-0.032 -1.056,-0.064 -0.512,-0.032 -0.736,-0.032 h -0.608 q -0.224,0 -0.736,0.032 -0.512,0.032 -1.056,0.064 -0.544,0.032 -1.056,0.064 -0.512,0.032 -0.736,0.032 l -0.096,-0.128 0.096,-0.576 0.128,-0.128 q 0.512,0 0.96,-0.032 0.48,-0.064 0.736,-0.288 0.224,-0.224 0.416,-0.576 0.224,-0.352 0.224,-1.248 0,-0.224 0,-0.512 0,-0.32 -0.032,-0.768 0,-0.448 -0.032,-1.088 -0.032,-0.64 -0.096,-1.6 -0.256,-3.36 -0.416,-5.344 -0.128,-2.016 -0.224,-3.136 -0.096,-1.12 -0.16,-1.6 -0.032,-0.48 -0.064,-0.8 -0.224,0.576 -0.704,1.792 -0.48,1.184 -1.12,2.752 -0.608,1.536 -1.312,3.296 -0.704,1.76 -1.408,3.488 -0.672,1.728 -1.312,3.264 -0.608,1.536 -1.056,2.624 h -1.504 l -6.4,-17.152 q -0.032,0.32 -0.064,0.672 -0.032,0.352 -0.064,0.864 -0.032,0.48 -0.096,1.152 -0.032,0.64 -0.096,1.6 l -0.448,5.888 q -0.096,1.088 -0.128,1.792 -0.032,0.704 -0.064,1.216 -0.032,0.512 -0.032,0.864 0,0.352 0,0.736 0,0.896 0.192,1.248 0.224,0.352 0.48,0.576 0.256,0.224 0.576,0.288 0.352,0.032 0.864,0.032 l 0.128,0.128 0.096,0.576 -0.064,0.128 q -0.224,0 -0.672,-0.032 -0.416,-0.032 -0.864,-0.064 -0.448,-0.032 -0.896,-0.064 -0.416,-0.032 -0.64,-0.032 h -0.608 q -0.224,0 -0.736,0.032 -0.48,0.032 -1.056,0.064 -0.544,0.032 -1.056,0.064 -0.48,0.032 -0.704,0.032 l -0.064,-0.128 0.096,-0.576 0.192,-0.128 q 0.48,0 0.928,-0.032 0.448,-0.064 0.768,-0.288 0.256,-0.224 0.512,-0.576 0.288,-0.352 0.416,-1.248 0.032,-0.224 0.064,-0.512 0.032,-0.32 0.064,-0.768 0.064,-0.448 0.128,-1.088 0.064,-0.64 0.128,-1.6 l 0.448,-6.496 q 0.096,-1.12 0.128,-1.888 0.064,-0.768 0.064,-1.312 0.032,-0.544 0.032,-0.928 0.032,-0.384 0.032,-0.7679997 0,-0.896 -0.288,-1.248 -0.256,-0.384 -0.512,-0.576 -0.288,-0.224 -0.736,-0.256 -0.448,-0.064 -0.96,-0.064 l -0.16,-0.128 -0.096,-0.576 0.064,-0.128 q 0.224,0 0.736,0.032 0.512,0.032 1.056,0.064 0.544,0.032 1.056,0.064 0.512,0.032 0.736,0.032 h 1.12 q 0.256,0 0.704,-0.032 0.48,-0.032 0.768,-0.096 l 0.16,0.096 q 0.032,0.416 0.224,1.12 0.224,0.672 0.512,1.536 0.32,0.8639997 0.672,1.8559997 0.352,0.96 0.704,1.92 l 2.176,5.92 q 0.544,1.536 0.992,2.624 0.448,1.056 0.8,1.888 0.096,-0.16 0.544,-1.216 0.448,-1.088 1.088,-2.656 0.672,-1.6 1.408,-3.488 0.736,-1.888 1.408,-3.68 0.672,-1.824 1.152,-3.3599997 0.48,-1.536 0.608,-2.432 l 0.16,-0.128 q 0.256,0.064 0.544,0.096 0.288,0.032 0.544,0.032 h 1.152 q 0.224,0 0.736,-0.032 0.512,-0.032 1.056,-0.064 0.544,-0.032 1.056,-0.064 0.512,-0.032 0.736,-0.032 l 0.064,0.128 -0.096,0.576 -0.16,0.128 q -0.512,0 -0.992,0.064 -0.448,0.032 -0.704,0.256 -0.256,0.192 -0.544,0.576 -0.256,0.384 -0.256,1.248 0,0.4479997 0,0.8319997 0.032,0.384 0.032,0.896 0.032,0.512 0.064,1.248 0.064,0.736 0.16,1.888 l 0.384,5.888 q 0.096,1.152 0.128,1.888 0.064,0.704 0.096,1.184 0.064,0.48 0.096,0.832 0.064,0.32 0.128,0.704 0.128,0.896 0.384,1.248 0.256,0.352 0.512,0.576 0.288,0.224 0.736,0.288 0.48,0.032 0.992,0.032 l 0.16,0.128 0.096,0.576 z"
       style="font-style:normal;font-variant:normal;font-weight:normal;font-stretch:normal;font-size:32px;font-family:Quattrocento;-inkscape-font-specification:'Quattrocento, Normal';font-variant-ligatures:normal;font-variant-caps:normal;font-variant-numeric:normal;font-feature-settings:normal;text-align:center;writing-mode:lr-tb;text-anchor:middle"
       id="path2524" />
    <path
       d="m 299.08943,19.474977 -0.512,0.224 q -1.728,0 -3.552,0.032 -1.824,0.032 -3.584,0.032 h -3.776 q -0.032,0.224 -0.032,0.448 0,0.192 0,0.384 0,1.216 0.352,2.336 0.352,1.088 1.088,1.92 0.768,0.832 1.952,1.344 1.184,0.48 2.88,0.48 0.992,0 2.112,-0.192 1.152,-0.224 2.112,-0.768 l 0.32,0.192 v 0.576 l -0.32,0.352 q -0.768,0.608 -2.176,1.12 -1.408,0.48 -3.136,0.48 -1.696,0 -3.104,-0.544 -1.376,-0.576 -2.4,-1.6 -0.992,-1.024 -1.568,-2.432 -0.544,-1.408 -0.544,-3.136 0,-1.76 0.576,-3.2 0.576,-1.44 1.568,-2.464 1.024,-1.024 2.368,-1.6 1.376,-0.576 2.944,-0.576 0.832,0 1.856,0.224 1.056,0.224 2.016,0.864 0.96,0.608 1.728,1.76 0.768,1.12 1.056,2.976 z m -6.4,-5.152 q -1.024,0 -1.856,0.352 -0.8,0.32 -1.44,0.896 -0.608,0.544 -1.024,1.312 -0.384,0.736 -0.544,1.568 h 1.248 q 1.728,0 3.36,-0.032 1.632,-0.064 3.424,-0.16 0.416,-0.032 0.544,-0.224 0.16,-0.192 0.16,-0.448 0,-0.192 -0.032,-0.352 -0.032,-0.16 -0.096,-0.32 -0.352,-1.216 -1.312,-1.888 -0.96,-0.704 -2.432,-0.704 z"
       style="font-style:normal;font-variant:normal;font-weight:normal;font-stretch:normal;font-size:32px;font-family:Quattrocento;-inkscape-font-specification:'Quattrocento, Normal';font-variant-ligatures:normal;font-variant-caps:normal;font-variant-numeric:normal;font-feature-settings:normal;text-align:center;writing-mode:lr-tb;text-anchor:middle"
       id="path2526" />
    <path
       d="m 314.20593,16.786977 -0.128,-0.096 q 0,-0.736 -0.448,-1.184 -0.416,-0.48 -1.024,-0.736 -0.608,-0.256 -1.312,-0.352 -0.672,-0.096 -1.184,-0.096 -1.472,0 -2.56,0.544 -1.056,0.512 -1.76,1.408 -0.704,0.864 -1.056,2.016 -0.32,1.12 -0.32,2.304 0,1.216 0.352,2.336 0.384,1.12 1.152,1.984 0.768,0.864 1.92,1.376 1.152,0.512 2.752,0.512 1.088,0 2.4,-0.32 1.344,-0.352 2.304,-0.864 l 0.32,0.32 -0.48,0.896 q -0.352,0.256 -0.928,0.544 -0.544,0.256 -1.248,0.512 -0.704,0.224 -1.536,0.384 -0.8,0.16 -1.6,0.16 -1.568,0 -3.008,-0.544 -1.408,-0.576 -2.496,-1.568 -1.056,-1.024 -1.696,-2.432 -0.64,-1.44 -0.64,-3.168 0,-1.76 0.64,-3.2 0.64,-1.44 1.76,-2.464 1.12,-1.024 2.592,-1.6 1.504,-0.576 3.2,-0.576 1.536,0 2.88,0.384 1.376,0.384 2.08,0.768 l 0.096,0.288 -0.352,2.464 z"
       style="font-style:normal;font-variant:normal;font-weight:normal;font-stretch:normal;font-size:32px;font-family:Quattrocento;-inkscape-font-specification:'Quattrocento, Normal';font-variant-ligatures:normal;font-variant-caps:normal;font-variant-numeric:normal;font-feature-settings:normal;text-align:center;writing-mode:lr-tb;text-anchor:middle"
       id="path2528" />
    <path
       d="m 330.45443,27.858977 q 0.128,-0.416 0.192,-1.088 0.064,-0.672 0.096,-1.184 0.064,-1.344 0.096,-2.624 0.032,-1.312 0.032,-2.176 0,-0.736 -0.064,-1.6 -0.032,-0.864 -0.192,-1.504 -0.32,-1.504 -1.312,-2.24 -0.992,-0.736 -2.304,-0.736 -1.056,0 -1.984,0.48 -0.896,0.448 -1.536,1.12 -0.64,0.64 -1.024,1.376 -0.352,0.704 -0.352,1.184 0,1.728 0,2.784 0,1.024 0,1.728 0.032,0.704 0.032,1.184 0.032,0.448 0.096,1.024 0.064,0.672 0.128,1.024 0.096,0.32 0.352,0.544 0.256,0.224 0.704,0.288 0.48,0.064 0.96,0.064 l 0.16,0.16 0.064,0.416 -0.064,0.128 q -0.224,0 -0.672,-0.032 -0.448,-0.032 -0.96,-0.064 -0.512,0 -0.96,-0.032 -0.448,0 -0.672,0 h -0.448 q -0.224,0 -0.704,0 -0.448,0.032 -0.96,0.032 -0.48,0.032 -0.96,0.064 -0.448,0.032 -0.672,0.032 l -0.032,-0.128 0.032,-0.448 0.128,-0.128 q 0.512,0 0.992,-0.032 0.512,-0.064 0.768,-0.32 0.256,-0.224 0.32,-0.576 0.096,-0.352 0.16,-0.992 0.032,-0.416 0.032,-0.832 0.032,-0.416 0.032,-0.96 0.032,-0.576 0.032,-1.312 0,-0.768 0,-1.888 v -7.68 q 0,-1.312 0,-2.208 0,-0.9279997 -0.032,-1.5999997 0,-0.672 -0.032,-1.184 0,-0.512 -0.032,-1.024 -0.032,-0.352 -0.192,-0.608 -0.128,-0.256 -0.224,-0.384 -0.32,-0.352 -0.8,-0.448 -0.48,-0.096 -0.992,-0.096 l -0.128,-0.128 v -0.416 l 0.128,-0.128 h 0.576 q 0.544,0 1.376,0 0.832,-0.032 1.44,-0.128 l 1.12,-0.16 0.192,0.288 q -0.064,0.128 -0.096,0.48 -0.032,0.32 -0.064,0.704 -0.032,0.384 -0.032,0.736 0,0.352 0,0.544 0,1.024 -0.064,2.464 -0.032,1.4079997 -0.032,3.2319997 0,1.344 -0.032,2.112 0,0.768 -0.064,1.216 l 0.096,0.064 q 0.8,-1.408 2.144,-2.368 1.344,-0.992 3.328,-0.992 0.896,0 1.792,0.256 0.928,0.256 1.664,0.8 0.736,0.544 1.248,1.376 0.512,0.832 0.64,1.984 0.096,0.832 0.096,1.92 0.032,1.056 0.032,1.728 v 4.512 q 0,0.736 0.128,1.152 0.16,0.384 0.352,0.544 0.288,0.256 0.768,0.32 0.512,0.032 1.024,0.032 l 0.096,0.128 0.064,0.448 -0.064,0.128 q -0.544,-0.064 -1.216,-0.096 -0.672,-0.032 -1.312,-0.032 -1.216,0 -2.208,0.096 z"
       style="font-style:normal;font-variant:normal;font-weight:normal;font-stretch:normal;font-size:32px;font-family:Quattrocento;-inkscape-font-specification:'Quattrocento, Normal';font-variant-ligatures:normal;font-variant-caps:normal;font-variant-numeric:normal;font-feature-settings:normal;text-align:center;writing-mode:lr-tb;text-anchor:middle"
       id="path2530" />
    <path
       d="m 346.34743,27.858977 q 0.096,-0.352 0.128,-1.056 0.064,-0.704 0.16,-1.312 l -0.032,-0.096 q -0.416,0.576 -0.992,1.12 -0.576,0.544 -1.28,0.992 -0.672,0.416 -1.472,0.672 -0.768,0.256 -1.632,0.256 -0.992,0 -1.76,-0.352 -0.768,-0.352 -1.28,-0.928 -0.512,-0.576 -0.768,-1.344 -0.256,-0.768 -0.256,-1.6 0,-1.184 0.544,-2.048 0.544,-0.896 1.44,-1.472 0.832,-0.512 1.952,-0.832 1.152,-0.32 2.208,-0.448 1.088,-0.16 1.952,-0.192 0.864,-0.064 1.152,-0.064 h 0.448 q -0.032,-1.184 -0.128,-1.856 -0.096,-0.704 -0.256,-1.152 -0.352,-0.96 -1.216,-1.376 -0.864,-0.448 -2.08,-0.448 -0.512,0 -1.12,0.096 -0.576,0.096 -1.12,0.352 -0.512,0.256 -0.896,0.736 -0.384,0.448 -0.448,1.184 l -0.128,0.096 h -0.704 l -0.288,-2.368 0.096,-0.192 q 0.16,-0.192 0.672,-0.416 0.512,-0.224 1.184,-0.416 0.704,-0.224 1.536,-0.352 0.864,-0.16 1.696,-0.16 1.152,0 2.144,0.32 0.992,0.288 1.696,0.896 0.736,0.608 1.152,1.536 0.416,0.896 0.416,2.112 0,1.344 -0.032,2.4 0,1.024 -0.032,1.92 -0.032,0.864 -0.064,1.728 0,0.832 0,1.792 0.064,0.736 0.16,1.088 0.096,0.32 0.32,0.48 0.256,0.256 0.736,0.32 0.512,0.032 1.024,0.032 l 0.128,0.128 0.032,0.448 -0.032,0.128 q -0.576,-0.064 -1.248,-0.096 -0.672,-0.032 -1.312,-0.032 -1.216,0 -2.208,0.096 z m 0,-3.456 q 0.096,-0.16 0.192,-0.384 0.128,-0.224 0.16,-0.544 l 0.16,-3.2 h -0.288 q -1.28,0 -2.56,0.16 -1.28,0.128 -2.304,0.544 -0.992,0.416 -1.632,1.152 -0.64,0.736 -0.64,1.888 0,1.216 0.704,1.952 0.704,0.704 1.824,0.704 0.672,0 1.344,-0.224 0.672,-0.224 1.248,-0.576 0.608,-0.352 1.056,-0.736 0.48,-0.384 0.736,-0.736 z"
       style="font-style:normal;font-variant:normal;font-weight:normal;font-stretch:normal;font-size:32px;font-family:Quattrocento;-inkscape-font-specification:'Quattrocento, Normal';font-variant-ligatures:normal;font-variant-caps:normal;font-variant-numeric:normal;font-feature-settings:normal;text-align:center;writing-mode:lr-tb;text-anchor:middle"
       id="path2532" />
    <path
       d="m 357.55043,16.114977 q 0.832,-1.376 2.144,-2.304 1.312,-0.928 3.264,-0.928 0.896,0 1.792,0.256 0.896,0.256 1.632,0.8 0.768,0.544 1.248,1.408 0.512,0.832 0.672,1.984 0.096,0.832 0.096,1.76 0.032,0.928 0.032,1.856 0,1.152 0,2.336 0.032,1.152 0.032,2.304 0.064,0.736 0.16,1.088 0.096,0.32 0.288,0.48 0.288,0.256 0.768,0.32 0.512,0.032 1.024,0.032 l 0.096,0.128 0.064,0.448 -0.064,0.128 q -0.544,-0.064 -1.216,-0.096 -0.672,-0.032 -1.312,-0.032 -1.216,0 -2.208,0.096 l -0.224,-0.32 q 0.128,-0.416 0.192,-1.088 0.064,-0.672 0.096,-1.184 0.064,-1.344 0.096,-2.624 0.032,-1.312 0.032,-2.176 0,-0.736 -0.064,-1.6 -0.032,-0.864 -0.192,-1.504 -0.32,-1.504 -1.312,-2.24 -0.992,-0.736 -2.304,-0.736 -1.056,0 -1.984,0.448 -0.896,0.448 -1.536,1.12 -0.64,0.64 -1.024,1.376 -0.352,0.704 -0.352,1.216 v 3.616 q 0,0.704 0,1.152 0,0.448 0,0.768 0.032,0.32 0.064,0.608 0.032,0.256 0.064,0.576 0.064,0.672 0.128,1.024 0.096,0.32 0.352,0.544 0.256,0.224 0.704,0.288 0.48,0.064 0.96,0.064 l 0.16,0.16 0.064,0.416 -0.064,0.128 q -0.224,0 -0.672,-0.032 -0.448,-0.032 -0.96,-0.064 -0.512,0 -0.96,-0.032 -0.448,0 -0.672,0 h -0.448 q -0.224,0 -0.704,0 -0.448,0.032 -0.96,0.032 -0.48,0.032 -0.96,0.064 -0.448,0.032 -0.672,0.032 l -0.032,-0.128 0.032,-0.448 0.128,-0.128 q 0.512,0 0.992,-0.032 0.512,-0.064 0.768,-0.32 0.256,-0.224 0.32,-0.576 0.096,-0.352 0.16,-0.992 0.032,-0.512 0.064,-1.024 0.032,-0.544 0.032,-1.696 v -3.936 q 0,-0.672 0,-1.12 0,-0.48 -0.032,-0.832 0,-0.352 -0.032,-0.64 0,-0.288 -0.032,-0.608 -0.064,-0.352 -0.192,-0.608 -0.128,-0.288 -0.224,-0.384 -0.32,-0.384 -0.8,-0.448 -0.48,-0.096 -0.992,-0.096 l -0.128,-0.128 v -0.448 l 0.128,-0.096 h 0.576 q 0.544,0 1.376,0 0.832,-0.032 1.44,-0.128 l 1.12,-0.16 0.192,0.288 q -0.16,0.416 -0.224,1.152 -0.064,0.704 -0.096,1.376 z"
       style="font-style:normal;font-variant:normal;font-weight:normal;font-stretch:normal;font-size:32px;font-family:Quattrocento;-inkscape-font-specification:'Quattrocento, Normal';font-variant-ligatures:normal;font-variant-caps:normal;font-variant-numeric:normal;font-feature-settings:normal;text-align:center;writing-mode:lr-tb;text-anchor:middle"
       id="path2534" />
    <path
       d="m 379.41843,28.210977 q -0.224,0 -0.672,-0.032 -0.448,-0.032 -0.96,-0.064 -0.512,0 -0.96,-0.032 -0.448,0 -0.672,0 h -0.448 q -0.224,0 -0.704,0 -0.448,0.032 -0.96,0.032 -0.48,0.032 -0.96,0.064 -0.448,0.032 -0.672,0.032 l -0.032,-0.128 0.032,-0.448 0.128,-0.128 q 0.512,0 0.992,-0.032 0.512,-0.064 0.768,-0.32 0.256,-0.224 0.32,-0.576 0.096,-0.352 0.16,-0.992 0.032,-0.512 0.064,-1.024 0.032,-0.544 0.032,-1.696 v -3.936 q 0,-0.672 0,-1.12 0,-0.48 -0.032,-0.832 0,-0.352 -0.032,-0.64 0,-0.288 -0.032,-0.608 -0.064,-0.352 -0.192,-0.608 -0.128,-0.288 -0.224,-0.384 -0.32,-0.384 -0.8,-0.448 -0.48,-0.096 -0.992,-0.096 l -0.128,-0.128 v -0.448 l 0.128,-0.096 h 0.576 q 0.544,0 1.376,0 0.832,-0.032 1.44,-0.128 l 1.12,-0.16 0.192,0.288 q -0.064,0.128 -0.128,0.448 -0.032,0.32 -0.064,0.704 0,0.352 -0.032,0.704 0,0.352 0,0.544 0,0.256 -0.032,0.512 0,0.224 0,0.544 0,0.32 -0.032,0.768 0,0.448 0,1.152 v 3.584 q 0,0.704 0,1.152 0.032,0.448 0.032,0.768 0.032,0.32 0.032,0.608 0.032,0.256 0.064,0.576 0.064,0.672 0.128,1.024 0.096,0.32 0.352,0.544 0.256,0.224 0.704,0.288 0.48,0.064 0.96,0.064 l 0.16,0.16 0.064,0.416 z m -5.376,-20.3199997 q 0,-0.64 0.416,-1.088 0.448,-0.48 1.088,-0.48 0.64,0 1.088,0.48 0.48,0.448 0.48,1.088 0,0.64 -0.48,1.088 -0.448,0.416 -1.088,0.416 -0.64,0 -1.088,-0.416 -0.416,-0.448 -0.416,-1.088 z"
       style="font-style:normal;font-variant:normal;font-weight:normal;font-stretch:normal;font-size:32px;font-family:Quattrocento;-inkscape-font-specification:'Quattrocento, Normal';font-variant-ligatures:normal;font-variant-caps:normal;font-variant-numeric:normal;font-feature-settings:normal;text-align:center;writing-mode:lr-tb;text-anchor:middle"
       id="path2536" />
    <path
       d="m 388.80693,19.602977 q 1.344,0.288 2.144,0.8 0.832,0.48 1.28,1.056 0.448,0.576 0.576,1.184 0.16,0.576 0.16,1.088 0,1.024 -0.416,1.888 -0.416,0.864 -1.216,1.504 -0.768,0.608 -1.888,0.96 -1.12,0.352 -2.528,0.352 -1.568,0 -2.944,-0.352 -1.344,-0.384 -2.144,-0.8 l -0.064,-0.288 0.48,-3.296 h 0.736 l 0.096,0.128 q 0,1.536 0.96,2.432 0.96,0.864 2.784,0.864 1.088,0 1.824,-0.256 0.736,-0.256 1.152,-0.672 0.448,-0.416 0.64,-0.896 0.192,-0.48 0.192,-0.928 0,-0.288 -0.032,-0.64 -0.032,-0.384 -0.256,-0.736 -0.224,-0.384 -0.672,-0.704 -0.448,-0.352 -1.28,-0.576 l -3.072,-0.768 q -1.056,-0.256 -1.728,-0.672 -0.672,-0.416 -1.056,-0.896 -0.384,-0.512 -0.544,-1.056 -0.16,-0.576 -0.16,-1.152 0,-1.056 0.416,-1.856 0.416,-0.832 1.12,-1.344 0.736,-0.544 1.696,-0.8 0.96,-0.288 2.08,-0.288 1.504,0 2.752,0.384 1.28,0.384 1.984,0.768 l 0.096,0.288 -0.352,2.464 h -0.672 l -0.128,-0.096 q 0,-0.736 -0.416,-1.216 -0.384,-0.512 -0.96,-0.8 -0.576,-0.32 -1.216,-0.448 -0.64,-0.128 -1.12,-0.128 -1.6,0 -2.304,0.8 -0.704,0.8 -0.704,1.792 0,0.736 0.48,1.408 0.512,0.64 1.952,0.992 z"
       style="font-style:normal;font-variant:normal;font-weight:normal;font-stretch:normal;font-size:32px;font-family:Quattrocento;-inkscape-font-specification:'Quattrocento, Normal';font-variant-ligatures:normal;font-variant-caps:normal;font-variant-numeric:normal;font-feature-settings:normal;text-align:center;writing-mode:lr-tb;text-anchor:middle"
       id="path2538" />
    <path
       d="m 395.31743,13.618977 0.128,-0.096 h 0.576 q 0.544,0 1.376,0 0.832,-0.032 1.44,-0.128 l 1.12,-0.16 0.192,0.288 q -0.064,0.192 -0.128,0.512 -0.032,0.288 -0.096,0.672 -0.032,0.352 -0.064,0.704 -0.032,0.352 -0.032,0.608 l 0.096,0.064 q 0.352,-0.64 0.8,-1.216 0.48,-0.608 1.088,-1.024 0.608,-0.448 1.376,-0.704 0.768,-0.256 1.76,-0.256 0.832,0 1.632,0.224 0.8,0.192 1.472,0.64 0.704,0.416 1.216,1.12 0.544,0.672 0.832,1.632 0.384,-0.704 0.832,-1.344 0.48,-0.672 1.088,-1.152 0.64,-0.512 1.44,-0.8 0.832,-0.32 1.888,-0.32 0.928,0 1.792,0.256 0.896,0.256 1.6,0.8 0.736,0.544 1.248,1.376 0.544,0.832 0.736,2.016 0.16,0.832 0.16,1.76 0.032,0.928 0.032,1.856 v 4.64 q 0,0.736 0.128,1.088 0.128,0.32 0.352,0.48 0.256,0.256 0.736,0.32 0.512,0.032 1.024,0.032 l 0.128,0.128 0.064,0.448 -0.064,0.128 q -0.576,-0.064 -1.248,-0.096 -0.64,-0.032 -1.312,-0.032 -1.184,0 -2.176,0.096 l -0.224,-0.32 q 0.128,-0.416 0.192,-1.088 0.064,-0.672 0.096,-1.184 0.032,-0.48 0.032,-1.184 0.032,-0.704 0.032,-1.408 0.032,-0.736 0.032,-1.376 0,-0.64 0,-0.992 0,-0.64 -0.064,-1.6 -0.032,-0.992 -0.192,-1.664 -0.32,-1.312 -1.312,-1.984 -0.96,-0.672 -2.176,-0.672 -0.896,0 -1.664,0.352 -0.736,0.32 -1.312,0.832 -0.576,0.48 -0.992,1.088 -0.384,0.608 -0.576,1.152 0.064,0.704 0.064,1.408 0.032,0.704 0.032,1.408 v 4.64 q 0,0.672 0.128,1.024 0.128,0.32 0.384,0.544 0.256,0.224 0.704,0.288 0.48,0.064 0.96,0.064 l 0.16,0.16 0.064,0.416 -0.064,0.128 q -0.224,0 -0.672,-0.032 -0.448,-0.032 -0.96,-0.064 -0.512,0 -0.96,-0.032 -0.448,0 -0.672,0 h -0.448 q -0.224,0 -0.704,0 -0.448,0.032 -0.96,0.032 -0.48,0.032 -0.96,0.064 -0.448,0.032 -0.672,0.032 l -0.064,-0.128 0.064,-0.448 0.128,-0.128 q 0.512,0 0.992,-0.032 0.512,-0.064 0.768,-0.32 0.256,-0.224 0.32,-0.576 0.064,-0.352 0.128,-0.992 0.032,-0.48 0.032,-1.184 0.032,-0.704 0.032,-1.408 0.032,-0.736 0.032,-1.376 0.032,-0.64 0.032,-0.992 0,-0.32 0,-0.736 0,-0.448 -0.032,-0.896 -0.032,-0.448 -0.096,-0.864 -0.032,-0.416 -0.128,-0.768 -0.352,-1.312 -1.312,-1.984 -0.96,-0.672 -2.176,-0.672 -1.056,0 -1.92,0.48 -0.864,0.448 -1.504,1.12 -0.608,0.64 -0.96,1.376 -0.32,0.704 -0.32,1.216 v 3.584 q 0,0.704 0,1.152 0.032,0.448 0.032,0.768 0.032,0.32 0.032,0.608 0.032,0.256 0.064,0.576 0.064,0.672 0.128,1.024 0.096,0.32 0.352,0.544 0.256,0.224 0.704,0.288 0.48,0.064 0.96,0.064 l 0.16,0.16 0.064,0.416 -0.064,0.128 q -0.224,0 -0.672,-0.032 -0.448,-0.032 -0.96,-0.064 -0.512,0 -0.96,-0.032 -0.448,0 -0.672,0 h -0.448 q -0.224,0 -0.704,0 -0.448,0.032 -0.96,0.032 -0.48,0.032 -0.96,0.064 -0.448,0.032 -0.672,0.032 l -0.032,-0.128 0.032,-0.448 0.128,-0.128 q 0.512,0 0.992,-0.032 0.512,-0.064 0.768,-0.32 0.256,-0.224 0.32,-0.576 0.096,-0.352 0.16,-0.992 0.032,-0.512 0.064,-1.024 0.032,-0.544 0.032,-1.696 v -3.936 q 0,-0.672 0,-1.12 0,-0.48 -0.032,-0.832 0,-0.352 -0.032,-0.64 0,-0.288 -0.032,-0.608 -0.064,-0.352 -0.192,-0.608 -0.128,-0.288 -0.224,-0.384 -0.32,-0.384 -0.8,-0.448 -0.48,-0.096 -0.992,-0.096 l -0.128,-0.128 z"
       style="font-style:normal;font-variant:normal;font-weight:normal;font-stretch:normal;font-size:32px;font-family:Quattrocento;-inkscape-font-specification:'Quattrocento, Normal';font-variant-ligatures:normal;font-variant-caps:normal;font-variant-numeric:normal;font-feature-settings:normal;text-align:center;writing-mode:lr-tb;text-anchor:middle"
       id="path2540" />
  </g>
  <path
     inkscape:connector-curvature="0"
     style="fill:#ffffff;stroke:#000000;stroke-width:2"
     d="m 472.25453,1.00001 h 215.50524 v 90.6161 H 472.25453 Z"
     id="path244-6-1-2-9-3-4-7-9-2"
     sodipodi:nodetypes="ccccc" />
  <path
     inkscape:connector-curvature="0"
     style="fill:#ffffff;stroke:#000000;stroke-width:2"
     d="M 1,1 H 216.50524 V 91.6161 H 1 Z"
     id="path244-6-1-2-9-3-4-7-9-4"
     sodipodi:nodetypes="ccccc" />
  <g
     aria-label="Outcome"
     style="font-style:normal;font-variant:normal;font-weight:normal;font-stretch:normal;font-size:32px;line-height:1.25;font-family:Quattrocento;-inkscape-font-specification:'Quattrocento, Normal';font-variant-ligatures:normal;font-variant-caps:normal;font-variant-numeric:normal;font-feature-settings:normal;text-align:center;letter-spacing:0px;word-spacing:0px;writing-mode:lr-tb;text-anchor:middle;fill:#000000;fill-opacity:1;stroke:none"
     id="text4126-2-1-5-6-5-9-3"
     transform="translate(475.33837)">
    <path
       d="m 52.707887,35.492049 q 2.464,0 4.384,0.864 1.92,0.864 3.232,2.368 1.312,1.472 1.984,3.424 0.704,1.952 0.704,4.096 0,2.112 -0.672,4.096 -0.672,1.952 -2.016,3.456 -1.312,1.504 -3.296,2.432 -1.952,0.896 -4.544,0.896 -2.496,0 -4.384,-0.864 -1.888,-0.864 -3.168,-2.304 -1.248,-1.472 -1.888,-3.392 -0.64,-1.952 -0.64,-4.096 0,-2.272 0.704,-4.256 0.704,-2.016 2.016,-3.488 1.312,-1.504 3.232,-2.368 1.92,-0.864 4.352,-0.864 z m -0.032,18.976 q 1.568,0 2.784,-0.64 1.248,-0.672 2.08,-1.76 0.832,-1.12 1.28,-2.592 0.448,-1.504 0.448,-3.2 0,-1.728 -0.48,-3.2 -0.448,-1.504 -1.344,-2.592 -0.864,-1.088 -2.112,-1.696 -1.248,-0.64 -2.816,-0.64 -1.536,0 -2.72,0.608 -1.184,0.608 -1.984,1.696 -0.8,1.088 -1.216,2.592 -0.416,1.472 -0.416,3.2 0,1.92 0.48,3.456 0.48,1.504 1.344,2.56 0.864,1.056 2.048,1.632 1.184,0.576 2.624,0.576 z"
       style="font-style:normal;font-variant:normal;font-weight:bold;font-stretch:normal;font-size:32px;font-family:Quattrocento;-inkscape-font-specification:'Quattrocento, Normal';font-variant-ligatures:normal;font-variant-caps:normal;font-variant-numeric:normal;font-feature-settings:normal;text-align:center;writing-mode:lr-tb;text-anchor:middle"
       id="path2543"
       inkscape:connector-curvature="0" />
    <path
       d="m 77.998387,54.020049 q -0.864,1.376 -2.144,2.24 -1.28,0.864 -3.232,0.864 -0.896,0 -1.76,-0.224 -0.832,-0.224 -1.536,-0.704 -0.672,-0.48 -1.184,-1.248 -0.512,-0.8 -0.736,-1.92 -0.064,-0.288 -0.128,-0.64 -0.032,-0.352 -0.064,-0.896 0,-0.576 -0.032,-1.376 0,-0.832 0,-2.048 v -2.88 q 0,-0.352 -0.16,-0.704 -0.16,-0.352 -0.256,-0.448 -0.32,-0.384 -0.8,-0.448 -0.48,-0.064 -0.992,-0.064 l -0.096,-0.128 v -1.088 l 0.096,-0.096 h 1.568 q 0.736,0 1.568,0 0.832,-0.032 1.472,-0.128 l 1.12,-0.16 0.192,0.608 q -0.064,0.128 -0.096,0.48 -0.032,0.32 -0.064,0.704 -0.032,0.384 -0.032,0.736 0,0.352 0,0.544 0,0.416 -0.032,1.024 0,0.576 -0.032,1.216 0,0.608 -0.032,1.184 0,0.576 0,0.96 0,0.832 0.064,1.696 0.064,0.832 0.256,1.536 0.32,1.12 0.96,1.664 0.672,0.512 1.856,0.512 0.96,0 1.696,-0.32 0.768,-0.32 1.312,-0.768 0.544,-0.448 0.896,-0.96 0.352,-0.544 0.448,-0.96 v -3.2 q 0,-1.472 -0.064,-2.272 -0.032,-0.8 -0.096,-1.248 -0.064,-0.416 -0.192,-0.672 -0.096,-0.256 -0.192,-0.352 -0.352,-0.384 -0.896,-0.448 -0.544,-0.064 -0.864,-0.064 l -0.128,-0.128 v -1.088 l 0.128,-0.096 h 0.576 q 0.32,0 0.832,0 0.544,0 1.12,0 0.576,-0.032 1.12,-0.032 0.544,-0.032 0.928,-0.096 l 1.12,-0.16 0.192,0.608 q -0.16,0.928 -0.224,2.432 -0.032,0.8 -0.064,1.312 0,0.48 0,0.8 0,0.32 0,0.512 0,0.16 0,0.32 v 2.624 q 0,1.76 0.096,3.104 0.064,0.608 0.16,0.992 0.096,0.352 0.352,0.576 0.288,0.256 0.672,0.32 0.384,0.032 0.928,0.032 l 0.128,0.128 0.064,1.088 -0.064,0.096 q -0.608,-0.064 -1.184,-0.096 -0.576,0 -1.344,0 -0.768,0 -1.632,0 -0.864,0.032 -1.664,0.096 l -0.192,-0.64 q 0.096,-0.352 0.192,-0.928 0.128,-0.608 0.192,-1.216 z"
       style="font-style:normal;font-variant:normal;font-weight:bold;font-stretch:normal;font-size:32px;font-family:Quattrocento;-inkscape-font-specification:'Quattrocento, Normal';font-variant-ligatures:normal;font-variant-caps:normal;font-variant-numeric:normal;font-feature-settings:normal;text-align:center;writing-mode:lr-tb;text-anchor:middle"
       id="path2545"
       inkscape:connector-curvature="0" />
    <path
       d="m 94.318387,43.972049 h -3.52 q 0,1.856 -0.032,3.456 0,1.568 0,2.752 0,1.152 -0.032,1.888 0,0.736 0,0.896 0,1.248 0.48,1.664 0.48,0.416 1.12,0.416 0.48,0 1.088,-0.096 0.608,-0.096 1.024,-0.256 l 0.192,0.352 -0.32,1.056 q -0.864,0.48 -1.792,0.736 -0.896,0.288 -1.664,0.288 -1.952,0 -2.784,-0.896 -0.832,-0.896 -0.832,-2.304 0,-0.288 0.032,-1.12 0.032,-0.864 0.064,-2.144 0.032,-1.312 0.064,-3.008 0.032,-1.696 0.032,-3.68 h -1.664 l -0.128,-0.16 v -1.408 l 0.128,-0.128 1.664,-0.448 q 0,-1.024 -0.064,-2.08 -0.032,-1.088 -0.096,-2.112 l 0.224,-0.192 0.448,-0.032 q 0.224,0 0.608,-0.032 0.416,-0.032 0.864,-0.064 0.448,-0.064 0.832,-0.128 0.416,-0.064 0.608,-0.128 l 0.288,0.128 q -0.16,0.8 -0.256,2.144 -0.096,1.312 -0.096,2.496 l 3.52,-0.192 0.16,0.128 v 2.048 z"
       style="font-style:normal;font-variant:normal;font-weight:bold;font-stretch:normal;font-size:32px;font-family:Quattrocento;-inkscape-font-specification:'Quattrocento, Normal';font-variant-ligatures:normal;font-variant-caps:normal;font-variant-numeric:normal;font-feature-settings:normal;text-align:center;writing-mode:lr-tb;text-anchor:middle"
       id="path2547"
       inkscape:connector-curvature="0" />
    <path
       d="m 108.61889,46.436049 -0.128,-0.096 q 0,-0.736 -0.448,-1.184 -0.416,-0.48 -1.024,-0.736 -0.608,-0.256 -1.312,-0.352 -0.672,-0.096 -1.184,-0.096 -1.152,0 -2.016,0.448 -0.864,0.448 -1.408,1.184 -0.544,0.736 -0.832,1.696 -0.256,0.96 -0.256,1.984 0,1.088 0.288,2.08 0.32,0.992 0.928,1.76 0.608,0.768 1.536,1.248 0.96,0.448 2.24,0.448 1.088,0 2.304,-0.224 1.216,-0.224 2.176,-0.736 l 0.544,0.768 -0.48,0.896 q -0.352,0.256 -0.928,0.544 -0.544,0.256 -1.248,0.512 -0.704,0.224 -1.536,0.384 -0.8,0.16 -1.6,0.16 -1.568,0 -3.008,-0.544 -1.408003,-0.576 -2.496003,-1.568 -1.056,-1.024 -1.696,-2.432 -0.64,-1.44 -0.64,-3.168 0,-1.76 0.64,-3.2 0.64,-1.44 1.76,-2.464 1.12,-1.024 2.592003,-1.6 1.504,-0.576 3.2,-0.576 0.768,0 1.536,0.128 0.8,0.096 1.504,0.256 0.736,0.16 1.312,0.384 0.576,0.192 0.928,0.384 l 0.096,0.288 -0.352,3.424 z"
       style="font-style:normal;font-variant:normal;font-weight:bold;font-stretch:normal;font-size:32px;font-family:Quattrocento;-inkscape-font-specification:'Quattrocento, Normal';font-variant-ligatures:normal;font-variant-caps:normal;font-variant-numeric:normal;font-feature-settings:normal;text-align:center;writing-mode:lr-tb;text-anchor:middle"
       id="path2549"
       inkscape:connector-curvature="0" />
    <path
       d="m 119.95439,41.572049 q 1.888,0 3.36,0.672 1.472,0.64 2.464,1.76 1.024,1.088 1.536,2.528 0.544,1.44 0.544,2.976 0,1.472 -0.48,2.848 -0.48,1.376 -1.472,2.432 -0.992,1.056 -2.464,1.696 -1.472,0.64 -3.424,0.64 -2.016,0 -3.52,-0.672 -1.504,-0.672 -2.496,-1.76 -0.96,-1.088 -1.44,-2.464 -0.48,-1.408 -0.48,-2.88 0,-1.568 0.544,-2.976 0.544,-1.408 1.536,-2.464 1.024,-1.088 2.464,-1.696 1.472,-0.64 3.328,-0.64 z m 0.032,13.344 q 0.992,0 1.728,-0.448 0.768,-0.48 1.28,-1.216 0.512,-0.768 0.736,-1.728 0.256,-0.992 0.256,-2.016 0,-0.992 -0.288,-1.984 -0.256,-1.024 -0.8,-1.824 -0.512,-0.8 -1.28,-1.312 -0.768,-0.512 -1.76,-0.512 -1.024,0 -1.792,0.48 -0.736,0.48 -1.216,1.248 -0.48,0.768 -0.736,1.728 -0.224,0.96 -0.224,1.952 0,1.024 0.256,2.016 0.288,0.992 0.8,1.824 0.544,0.8 1.312,1.312 0.768,0.48 1.728,0.48 z"
       style="font-style:normal;font-variant:normal;font-weight:bold;font-stretch:normal;font-size:32px;font-family:Quattrocento;-inkscape-font-specification:'Quattrocento, Normal';font-variant-ligatures:normal;font-variant-caps:normal;font-variant-numeric:normal;font-feature-settings:normal;text-align:center;writing-mode:lr-tb;text-anchor:middle"
       id="path2551"
       inkscape:connector-curvature="0" />
    <path
       d="m 129.92239,42.308049 0.128,-0.096 h 1.6 q 0.736,0 1.568,0 0.864,-0.032 1.504,-0.128 l 1.12,-0.16 0.192,0.608 q -0.064,0.16 -0.128,0.448 -0.032,0.256 -0.096,0.576 -0.032,0.32 -0.064,0.64 -0.032,0.288 -0.032,0.512 l 0.096,0.064 q 0.352,-0.64 0.8,-1.216 0.48,-0.608 1.088,-1.024 0.608,-0.448 1.376,-0.704 0.768,-0.256 1.76,-0.256 1.76,0 3.136,0.896 1.408,0.896 2.016,2.496 0.352,-0.576 0.832,-1.184 0.48,-0.608 1.12,-1.088 0.64,-0.512 1.44,-0.8 0.832,-0.32 1.856,-0.32 0.992,0 1.92,0.256 0.928,0.256 1.696,0.8 0.768,0.544 1.312,1.376 0.544,0.832 0.768,2.016 0.16,0.832 0.16,1.76 0.032,0.928 0.032,1.856 v 4 q 0,0.64 0.16,0.928 0.192,0.288 0.352,0.544 0.224,0.32 0.704,0.384 0.512,0.064 1.024,0.064 l 0.128,0.128 0.064,1.088 -0.064,0.128 q -0.576,-0.064 -1.248,-0.096 -0.672,-0.032 -1.312,-0.032 -1.952,0 -3.52,0.096 l -0.224,-0.64 q 0.096,-0.416 0.16,-1.088 0.096,-0.672 0.128,-1.184 0.032,-0.416 0.032,-1.088 0.032,-0.672 0.064,-1.344 0.032,-0.704 0.032,-1.28 0.032,-0.608 0.032,-0.928 0,-0.64 -0.064,-1.6 -0.032,-0.992 -0.192,-1.664 -0.256,-0.832 -0.96,-1.248 -0.704,-0.448 -1.568,-0.448 -0.832,0 -1.536,0.256 -0.672,0.224 -1.216,0.576 -0.544,0.352 -0.928,0.8 -0.352,0.448 -0.544,0.832 0.064,0.704 0.064,1.408 0.032,0.704 0.032,1.408 v 4 q 0,0.672 0.128,0.992 0.16,0.32 0.416,0.576 0.288,0.256 0.704,0.32 0.448,0.032 0.928,0.032 l 0.16,0.16 0.064,1.056 -0.064,0.128 q -0.224,0 -0.672,-0.032 -0.448,-0.032 -0.96,-0.064 -0.512,0 -0.96,-0.032 -0.448,0 -0.672,0 h -1.728 q -0.224,0 -0.704,0 -0.448,0.032 -0.96,0.032 -0.48,0.032 -0.96,0.064 -0.448,0.032 -0.672,0.032 l -0.064,-0.128 0.064,-1.088 0.128,-0.128 q 0.512,0 0.96,-0.032 0.48,-0.064 0.736,-0.32 0.256,-0.224 0.352,-0.576 0.128,-0.352 0.16,-0.992 0,-0.384 0.032,-0.992 0.032,-0.64 0.032,-1.28 0.032,-0.64 0.032,-1.184 0.032,-0.576 0.032,-0.864 0,-0.32 0,-0.736 0,-0.448 -0.032,-0.896 -0.032,-0.448 -0.096,-0.864 -0.032,-0.416 -0.128,-0.768 -0.288,-0.832 -0.992,-1.248 -0.672,-0.448 -1.536,-0.448 -1.056,0 -1.92,0.352 -0.864,0.352 -1.504,0.864 -0.608,0.512 -0.96,1.056 -0.32,0.544 -0.32,0.96 v 2.944 q 0,0.704 0,1.152 0.032,0.448 0.032,0.768 0.032,0.32 0.032,0.608 0.032,0.256 0.064,0.576 0.064,0.672 0.288,1.024 0.224,0.32 0.576,0.608 0.256,0.224 0.576,0.256 0.352,0.032 0.736,0.032 l 0.16,0.16 0.064,1.056 -0.064,0.128 q -0.224,0 -0.704,-0.032 -0.448,-0.032 -0.96,-0.064 -0.48,0 -0.96,-0.032 -0.448,0 -0.672,0 h -1.728 q -0.224,0 -0.704,0 -0.448,0.032 -0.96,0.032 -0.48,0.032 -0.96,0.064 -0.448,0.032 -0.672,0.032 l -0.032,-0.128 0.064,-1.088 0.096,-0.128 q 0.512,0 0.928,-0.064 0.448,-0.064 0.704,-0.32 0.224,-0.224 0.384,-0.544 0.16,-0.352 0.224,-0.992 0.032,-0.512 0.064,-1.024 0.032,-0.544 0.032,-1.696 v -2.656 q 0,-0.672 0,-1.12 0,-0.48 -0.032,-0.832 0,-0.352 -0.032,-0.64 0,-0.288 -0.032,-0.608 -0.064,-0.32 -0.192,-0.608 -0.128,-0.288 -0.224,-0.384 -0.32,-0.416 -0.8,-0.48 -0.48,-0.064 -0.992,-0.064 l -0.128,-0.128 z"
       style="font-style:normal;font-variant:normal;font-weight:bold;font-stretch:normal;font-size:32px;font-family:Quattrocento;-inkscape-font-specification:'Quattrocento, Normal';font-variant-ligatures:normal;font-variant-caps:normal;font-variant-numeric:normal;font-feature-settings:normal;text-align:center;writing-mode:lr-tb;text-anchor:middle"
       id="path2553"
       inkscape:connector-curvature="0" />
    <path
       d="m 174.84539,48.612049 -0.768,0.576 q -1.728,0 -3.424,0.032 -1.664,0.032 -3.424,0.032 h -2.624 q -0.032,0.224 -0.032,0.448 0,0.192 0,0.384 0,0.832 0.288,1.664 0.288,0.832 0.896,1.504 0.64,0.64 1.6,1.056 0.96,0.384 2.336,0.384 0.992,0 2.08,-0.256 1.12,-0.288 2.08,-0.736 l 0.544,0.224 v 1.152 l -0.32,0.352 q -0.768,0.608 -2.272,1.152 -1.472,0.544 -3.2,0.544 -1.696,0 -3.104,-0.544 -1.376,-0.576 -2.4,-1.6 -0.992,-1.024 -1.568,-2.432 -0.544,-1.408 -0.544,-3.136 0,-1.76 0.576,-3.2 0.576,-1.44 1.568,-2.464 1.024,-1.024 2.368,-1.6 1.376,-0.576 2.944,-0.576 0.832,0 1.856,0.224 1.056,0.224 2.016,0.864 0.96,0.608 1.728,1.76 0.768,1.12 1.056,2.976 z m -6.368,-4.64 q -1.568,0 -2.528,0.96 -0.928,0.928 -1.184,2.176 h 1.6 q 1.12,0 2.208,-0.032 1.088,-0.064 2.208,-0.064 0.416,0 0.608,-0.224 0.192,-0.256 0.192,-0.512 0,-0.96 -0.928,-1.632 -0.928,-0.672 -2.176,-0.672 z"
       style="font-style:normal;font-variant:normal;font-weight:bold;font-stretch:normal;font-size:32px;font-family:Quattrocento;-inkscape-font-specification:'Quattrocento, Normal';font-variant-ligatures:normal;font-variant-caps:normal;font-variant-numeric:normal;font-feature-settings:normal;text-align:center;writing-mode:lr-tb;text-anchor:middle"
       id="path2555"
       inkscape:connector-curvature="0" />
  </g>
  <g
     aria-label="Cause"
     style="font-style:normal;font-variant:normal;font-weight:normal;font-stretch:normal;font-size:32px;line-height:1.25;font-family:Quattrocento;-inkscape-font-specification:'Quattrocento, Normal';font-variant-ligatures:normal;font-variant-caps:normal;font-variant-numeric:normal;font-feature-settings:normal;text-align:center;letter-spacing:0px;word-spacing:0px;writing-mode:lr-tb;text-anchor:middle;fill:#000000;fill-opacity:1;stroke:none"
     id="text4126-2-1-5-6-5-9-3-7"
     transform="translate(-472.4311)">
    <path
       d="m 553.48391,40.548049 q -0.096,-0.704 -0.608,-1.184 -0.512,-0.512 -1.28,-0.8 -0.736,-0.288 -1.664,-0.416 -0.896,-0.128 -1.792,-0.128 -2.848,0 -4.416,1.44 -1.216,1.088 -1.76,2.912 -0.544,1.792 -0.544,3.904 0,2.016 0.544,3.552 0.576,1.536 1.536,2.592 0.992,1.024 2.336,1.568 1.344,0.512 2.944,0.512 1.376,0 3.168,-0.288 1.824,-0.32 3.424,-1.184 l 0.384,0.704 -0.768,1.408 q -1.664,1.024 -3.36,1.504 -1.664,0.48 -3.424,0.48 -2.4,0 -4.352,-0.768 -1.952,-0.768 -3.36,-2.176 -1.376,-1.44 -2.144,-3.392 -0.768,-1.984 -0.768,-4.384 0,-2.24 0.672,-4.224 0.704,-2.016 2.048,-3.488 1.376,-1.472 3.36,-2.336 2.016,-0.864 4.672,-0.864 0.64,0 1.504,0.064 0.864,0.032 1.824,0.192 0.96,0.128 1.92,0.416 0.992,0.256 1.888,0.672 l 0.096,0.288 -0.416,3.552 h -1.568 z"
       style="font-style:normal;font-variant:normal;font-weight:bold;font-stretch:normal;font-size:32px;font-family:Quattrocento;-inkscape-font-specification:'Quattrocento, Normal';font-variant-ligatures:normal;font-variant-caps:normal;font-variant-numeric:normal;font-feature-settings:normal;text-align:center;writing-mode:lr-tb;text-anchor:middle"
       id="path2513"
       inkscape:connector-curvature="0" />
    <path
       d="m 566.90441,56.548049 q 0.096,-0.288 0.128,-0.832 0.064,-0.544 0.16,-0.992 l -0.032,-0.096 q -0.384,0.48 -0.896,0.928 -0.48,0.448 -1.088,0.8 -0.608,0.352 -1.312,0.544 -0.672,0.224 -1.44,0.224 -1.152,0 -2.016,-0.352 -0.864,-0.352 -1.44,-0.928 -0.576,-0.576 -0.896,-1.344 -0.288,-0.768 -0.288,-1.6 0,-1.248 0.544,-2.176 0.544,-0.928 1.44,-1.504 0.832,-0.544 1.952,-0.832 1.12,-0.32 2.176,-0.48 1.056,-0.16 1.92,-0.192 0.864,-0.064 1.152,-0.064 h 0.448 q -0.032,-0.992 -0.128,-1.536 -0.096,-0.576 -0.256,-0.96 -0.288,-0.64 -0.96,-0.896 -0.64,-0.288 -1.536,-0.288 -0.544,0 -1.184,0.096 -0.608,0.064 -1.152,0.288 -0.544,0.224 -0.96,0.64 -0.384,0.384 -0.448,1.024 l -0.128,0.096 h -1.024 l -0.288,-3.008 0.096,-0.192 q 0.192,-0.192 0.736,-0.416 0.544,-0.224 1.312,-0.416 0.768,-0.224 1.664,-0.352 0.928,-0.16 1.856,-0.16 1.248,0 2.336,0.32 1.088,0.288 1.856,0.896 0.8,0.608 1.248,1.536 0.448,0.896 0.448,2.112 0,1.312 -0.032,2.24 0,0.928 -0.032,1.728 -0.032,0.8 -0.064,1.568 0,0.736 0,1.664 0.064,0.736 0.16,1.056 0.096,0.32 0.32,0.512 0.256,0.256 0.768,0.32 0.544,0.032 0.992,0.032 l 0.096,0.128 0.064,1.088 -0.032,0.128 q -0.544,-0.064 -1.248,-0.096 -0.704,-0.032 -1.312,-0.032 -0.896,0 -1.792,0 -0.896,0.032 -1.696,0.096 z m 0,-3.456 q 0.096,-0.16 0.192,-0.384 0.128,-0.224 0.16,-0.544 l 0.16,-2.72 h -0.288 q -0.992,0 -1.952,0.128 -0.96,0.128 -1.728,0.48 -0.768,0.352 -1.248,0.992 -0.48,0.64 -0.48,1.664 0,0.864 0.416,1.376 0.448,0.512 1.184,0.512 0.544,0 1.088,-0.128 0.576,-0.16 1.056,-0.384 0.48,-0.224 0.864,-0.48 0.384,-0.288 0.576,-0.512 z"
       style="font-style:normal;font-variant:normal;font-weight:bold;font-stretch:normal;font-size:32px;font-family:Quattrocento;-inkscape-font-specification:'Quattrocento, Normal';font-variant-ligatures:normal;font-variant-caps:normal;font-variant-numeric:normal;font-feature-settings:normal;text-align:center;writing-mode:lr-tb;text-anchor:middle"
       id="path2515"
       inkscape:connector-curvature="0" />
    <path
       d="m 587.01891,54.020049 q -0.864,1.376 -2.144,2.24 -1.28,0.864 -3.232,0.864 -0.896,0 -1.76,-0.224 -0.832,-0.224 -1.536,-0.704 -0.672,-0.48 -1.184,-1.248 -0.512,-0.8 -0.736,-1.92 -0.064,-0.288 -0.128,-0.64 -0.032,-0.352 -0.064,-0.896 0,-0.576 -0.032,-1.376 0,-0.832 0,-2.048 v -2.88 q 0,-0.352 -0.16,-0.704 -0.16,-0.352 -0.256,-0.448 -0.32,-0.384 -0.8,-0.448 -0.48,-0.064 -0.992,-0.064 l -0.096,-0.128 v -1.088 l 0.096,-0.096 h 1.568 q 0.736,0 1.568,0 0.832,-0.032 1.472,-0.128 l 1.12,-0.16 0.192,0.608 q -0.064,0.128 -0.096,0.48 -0.032,0.32 -0.064,0.704 -0.032,0.384 -0.032,0.736 0,0.352 0,0.544 0,0.416 -0.032,1.024 0,0.576 -0.032,1.216 0,0.608 -0.032,1.184 0,0.576 0,0.96 0,0.832 0.064,1.696 0.064,0.832 0.256,1.536 0.32,1.12 0.96,1.664 0.672,0.512 1.856,0.512 0.96,0 1.696,-0.32 0.768,-0.32 1.312,-0.768 0.544,-0.448 0.896,-0.96 0.352,-0.544 0.448,-0.96 v -3.2 q 0,-1.472 -0.064,-2.272 -0.032,-0.8 -0.096,-1.248 -0.064,-0.416 -0.192,-0.672 -0.096,-0.256 -0.192,-0.352 -0.352,-0.384 -0.896,-0.448 -0.544,-0.064 -0.864,-0.064 l -0.128,-0.128 v -1.088 l 0.128,-0.096 h 0.576 q 0.32,0 0.832,0 0.544,0 1.12,0 0.576,-0.032 1.12,-0.032 0.544,-0.032 0.928,-0.096 l 1.12,-0.16 0.192,0.608 q -0.16,0.928 -0.224,2.432 -0.032,0.8 -0.064,1.312 0,0.48 0,0.8 0,0.32 0,0.512 0,0.16 0,0.32 v 2.624 q 0,1.76 0.096,3.104 0.064,0.608 0.16,0.992 0.096,0.352 0.352,0.576 0.288,0.256 0.672,0.32 0.384,0.032 0.928,0.032 l 0.128,0.128 0.064,1.088 -0.064,0.096 q -0.608,-0.064 -1.184,-0.096 -0.576,0 -1.344,0 -0.768,0 -1.632,0 -0.864,0.032 -1.664,0.096 l -0.192,-0.64 q 0.096,-0.352 0.192,-0.928 0.128,-0.608 0.192,-1.216 z"
       style="font-style:normal;font-variant:normal;font-weight:bold;font-stretch:normal;font-size:32px;font-family:Quattrocento;-inkscape-font-specification:'Quattrocento, Normal';font-variant-ligatures:normal;font-variant-caps:normal;font-variant-numeric:normal;font-feature-settings:normal;text-align:center;writing-mode:lr-tb;text-anchor:middle"
       id="path2517"
       inkscape:connector-curvature="0" />
    <path
       d="m 601.89891,47.812049 q 1.344,0.32 2.176,0.864 0.832,0.544 1.248,1.184 0.448,0.64 0.576,1.312 0.16,0.672 0.16,1.248 0,1.024 -0.416,1.888 -0.416,0.864 -1.216,1.504 -0.768,0.608 -1.888,0.96 -1.12,0.352 -2.528,0.352 -1.472,0 -2.752,-0.32 -1.28,-0.288 -2.016,-0.704 l -0.384,-0.416 0.48,-3.936 h 1.056 l 0.096,0.128 q 0,1.408 0.864,2.24 0.864,0.8 2.56,0.8 0.896,0 1.504,-0.16 0.64,-0.192 0.992,-0.448 0.384,-0.288 0.544,-0.608 0.16,-0.352 0.16,-0.64 0,-0.224 -0.032,-0.48 -0.032,-0.256 -0.192,-0.512 -0.16,-0.288 -0.48,-0.544 -0.32,-0.288 -0.928,-0.48 l -3.072,-0.768 q -1.056,-0.256 -1.728,-0.736 -0.672,-0.48 -1.088,-1.056 -0.384,-0.608 -0.544,-1.28 -0.128,-0.672 -0.128,-1.344 0,-1.056 0.416,-1.856 0.416,-0.832 1.12,-1.344 0.736,-0.544 1.696,-0.8 0.96,-0.288 2.08,-0.288 1.408,0 2.592,0.352 1.184,0.32 1.824,0.704 l 0.416,0.384 -0.352,3.104 h -0.992 l -0.128,-0.096 q 0,-0.704 -0.384,-1.152 -0.352,-0.48 -0.896,-0.736 -0.512,-0.288 -1.088,-0.384 -0.576,-0.128 -1.024,-0.128 -1.28,0 -1.824,0.544 -0.544,0.544 -0.544,1.216 0,0.576 0.352,1.12 0.384,0.544 1.44,0.8 z"
       style="font-style:normal;font-variant:normal;font-weight:bold;font-stretch:normal;font-size:32px;font-family:Quattrocento;-inkscape-font-specification:'Quattrocento, Normal';font-variant-ligatures:normal;font-variant-caps:normal;font-variant-numeric:normal;font-feature-settings:normal;text-align:center;writing-mode:lr-tb;text-anchor:middle"
       id="path2519"
       inkscape:connector-curvature="0" />
    <path
       d="m 622.17841,48.612049 -0.768,0.576 q -1.728,0 -3.424,0.032 -1.664,0.032 -3.424,0.032 h -2.624 q -0.032,0.224 -0.032,0.448 0,0.192 0,0.384 0,0.832 0.288,1.664 0.288,0.832 0.896,1.504 0.64,0.64 1.6,1.056 0.96,0.384 2.336,0.384 0.992,0 2.08,-0.256 1.12,-0.288 2.08,-0.736 l 0.544,0.224 v 1.152 l -0.32,0.352 q -0.768,0.608 -2.272,1.152 -1.472,0.544 -3.2,0.544 -1.696,0 -3.104,-0.544 -1.376,-0.576 -2.4,-1.6 -0.992,-1.024 -1.568,-2.432 -0.544,-1.408 -0.544,-3.136 0,-1.76 0.576,-3.2 0.576,-1.44 1.568,-2.464 1.024,-1.024 2.368,-1.6 1.376,-0.576 2.944,-0.576 0.832,0 1.856,0.224 1.056,0.224 2.016,0.864 0.96,0.608 1.728,1.76 0.768,1.12 1.056,2.976 z m -6.368,-4.64 q -1.568,0 -2.528,0.96 -0.928,0.928 -1.184,2.176 h 1.6 q 1.12,0 2.208,-0.032 1.088,-0.064 2.208,-0.064 0.416,0 0.608,-0.224 0.192,-0.256 0.192,-0.512 0,-0.96 -0.928,-1.632 -0.928,-0.672 -2.176,-0.672 z"
       style="font-style:normal;font-variant:normal;font-weight:bold;font-stretch:normal;font-size:32px;font-family:Quattrocento;-inkscape-font-specification:'Quattrocento, Normal';font-variant-ligatures:normal;font-variant-caps:normal;font-variant-numeric:normal;font-feature-settings:normal;text-align:center;writing-mode:lr-tb;text-anchor:middle"
       id="path2521"
       inkscape:connector-curvature="0" />
  </g>
</svg>
