<?xml version="1.0" encoding="UTF-8"?>
<svg xmlns="http://www.w3.org/2000/svg" xmlns:xlink="http://www.w3.org/1999/xlink" width="504pt" height="360pt" viewBox="0 0 504 360" version="1.1">
<g id="surface11764">
<rect x="0" y="0" width="504" height="360" style="fill:rgb(100%,100%,100%);fill-opacity:1;stroke:none;"/>
<path style="fill-rule:nonzero;fill:rgb(0%,0%,0%);fill-opacity:1;stroke-width:0.708661;stroke-linecap:round;stroke-linejoin:round;stroke:rgb(0%,0%,0%);stroke-opacity:1;stroke-miterlimit:10;" d="M 103.925781 86.625 C 103.925781 89.230469 100.015625 89.230469 100.015625 86.625 C 100.015625 84.019531 103.925781 84.019531 103.925781 86.625 "/>
<path style="fill-rule:nonzero;fill:rgb(0%,0%,0%);fill-opacity:1;stroke-width:0.708661;stroke-linecap:round;stroke-linejoin:round;stroke:rgb(0%,0%,0%);stroke-opacity:1;stroke-miterlimit:10;" d="M 73.710938 104.84375 C 73.710938 107.453125 69.800781 107.453125 69.800781 104.84375 C 69.800781 102.238281 73.710938 102.238281 73.710938 104.84375 "/>
<path style="fill-rule:nonzero;fill:rgb(0%,0%,0%);fill-opacity:1;stroke-width:0.708661;stroke-linecap:round;stroke-linejoin:round;stroke:rgb(0%,0%,0%);stroke-opacity:1;stroke-miterlimit:10;" d="M 149.246094 94.3125 C 149.246094 96.921875 145.335938 96.921875 145.335938 94.3125 C 145.335938 91.707031 149.246094 91.707031 149.246094 94.3125 "/>
<path style="fill-rule:nonzero;fill:rgb(0%,0%,0%);fill-opacity:1;stroke-width:0.708661;stroke-linecap:round;stroke-linejoin:round;stroke:rgb(0%,0%,0%);stroke-opacity:1;stroke-miterlimit:10;" d="M 88.816406 73.753906 C 88.816406 76.359375 84.910156 76.359375 84.910156 73.753906 C 84.910156 71.144531 88.816406 71.144531 88.816406 73.753906 "/>
<path style="fill-rule:nonzero;fill:rgb(0%,0%,0%);fill-opacity:1;stroke-width:0.708661;stroke-linecap:round;stroke-linejoin:round;stroke:rgb(0%,0%,0%);stroke-opacity:1;stroke-miterlimit:10;" d="M 119.03125 81.777344 C 119.03125 84.382813 115.121094 84.382813 115.121094 81.777344 C 115.121094 79.171875 119.03125 79.171875 119.03125 81.777344 "/>
<path style="fill-rule:nonzero;fill:rgb(0%,0%,0%);fill-opacity:1;stroke-width:0.708661;stroke-linecap:round;stroke-linejoin:round;stroke:rgb(0%,0%,0%);stroke-opacity:1;stroke-miterlimit:10;" d="M 164.351563 54.527344 C 164.351563 57.136719 160.441406 57.136719 160.441406 54.527344 C 160.441406 51.921875 164.351563 51.921875 164.351563 54.527344 "/>
<path style="fill-rule:nonzero;fill:rgb(0%,0%,0%);fill-opacity:1;stroke-width:0.708661;stroke-linecap:round;stroke-linejoin:round;stroke:rgb(0%,0%,0%);stroke-opacity:1;stroke-miterlimit:10;" d="M 43.5 99.996094 C 43.5 102.605469 39.589844 102.605469 39.589844 99.996094 C 39.589844 97.390625 43.5 97.390625 43.5 99.996094 "/>
<path style="fill-rule:nonzero;fill:rgb(0%,0%,0%);fill-opacity:1;stroke-width:0.708661;stroke-linecap:round;stroke-linejoin:round;stroke:rgb(0%,0%,0%);stroke-opacity:1;stroke-miterlimit:10;" d="M 13.285156 149.8125 C 13.285156 152.417969 9.375 152.417969 9.375 149.8125 C 9.375 147.207031 13.285156 147.207031 13.285156 149.8125 "/>
<path style="fill-rule:nonzero;fill:rgb(0%,0%,0%);fill-opacity:1;stroke-width:0.708661;stroke-linecap:round;stroke-linejoin:round;stroke:rgb(0%,0%,0%);stroke-opacity:1;stroke-miterlimit:10;" d="M 134.136719 39.820313 C 134.136719 42.425781 130.230469 42.425781 130.230469 39.820313 C 130.230469 37.210938 134.136719 37.210938 134.136719 39.820313 "/>
<path style="fill-rule:nonzero;fill:rgb(0%,0%,0%);fill-opacity:1;stroke-width:0.708661;stroke-linecap:round;stroke-linejoin:round;stroke:rgb(0%,0%,0%);stroke-opacity:1;stroke-miterlimit:10;" d="M 58.605469 140.449219 C 58.605469 143.058594 54.695313 143.058594 54.695313 140.449219 C 54.695313 137.84375 58.605469 137.84375 58.605469 140.449219 "/>
<path style="fill-rule:nonzero;fill:rgb(0%,0%,0%);fill-opacity:1;stroke-width:0.708661;stroke-linecap:round;stroke-linejoin:round;stroke:rgb(0%,0%,0%);stroke-opacity:1;stroke-miterlimit:10;" d="M 28.390625 126.074219 C 28.390625 128.679688 24.480469 128.679688 24.480469 126.074219 C 24.480469 123.46875 28.390625 123.46875 28.390625 126.074219 "/>
<path style="fill:none;stroke-width:2.133957;stroke-linecap:butt;stroke-linejoin:round;stroke:rgb(20%,40%,100%);stroke-opacity:1;stroke-miterlimit:10;" d="M 11.328125 137.433594 L 15.15625 135.316406 L 17.066406 134.257813 L 18.980469 133.203125 L 20.890625 132.144531 L 22.804688 131.085938 L 24.714844 130.027344 L 26.628906 128.96875 L 28.539063 127.910156 L 30.453125 126.851563 L 32.363281 125.792969 L 34.277344 124.734375 L 36.1875 123.679688 L 38.101563 122.621094 L 40.011719 121.5625 L 43.839844 119.445313 L 45.75 118.386719 L 47.664063 117.328125 L 49.574219 116.269531 L 51.488281 115.210938 L 53.398438 114.152344 L 55.3125 113.097656 L 57.222656 112.039063 L 59.136719 110.980469 L 61.046875 109.921875 L 62.960938 108.863281 L 64.871094 107.804688 L 66.785156 106.746094 L 68.695313 105.6875 L 72.523438 103.570313 L 74.433594 102.515625 L 76.347656 101.457031 L 78.257813 100.398438 L 80.171875 99.339844 L 82.082031 98.28125 L 83.996094 97.222656 L 85.90625 96.164063 L 87.820313 95.105469 L 89.730469 94.046875 L 91.644531 92.992188 L 93.554688 91.933594 L 95.46875 90.875 L 97.378906 89.816406 L 101.207031 87.699219 L 103.117188 86.640625 L 105.03125 85.582031 L 106.941406 84.523438 L 108.855469 83.464844 L 110.765625 82.410156 L 112.679688 81.351563 L 114.589844 80.292969 L 116.503906 79.234375 L 118.414063 78.175781 L 120.328125 77.117188 L 122.238281 76.058594 L 124.152344 75 L 126.0625 73.941406 L 127.976563 72.882813 L 129.890625 71.828125 L 131.800781 70.769531 L 133.714844 69.710938 L 135.625 68.652344 L 137.539063 67.59375 L 139.449219 66.535156 L 141.363281 65.476563 L 143.273438 64.417969 L 145.1875 63.359375 L 147.097656 62.304688 L 149.011719 61.246094 L 150.921875 60.1875 L 152.835938 59.128906 L 154.746094 58.070313 L 158.574219 55.953125 L 160.484375 54.894531 L 162.398438 53.835938 "/>
<path style="fill-rule:nonzero;fill:rgb(0%,0%,0%);fill-opacity:1;stroke-width:0.708661;stroke-linecap:round;stroke-linejoin:round;stroke:rgb(0%,0%,0%);stroke-opacity:1;stroke-miterlimit:10;" d="M 103.925781 279.058594 C 103.925781 281.664063 100.015625 281.664063 100.015625 279.058594 C 100.015625 276.453125 103.925781 276.453125 103.925781 279.058594 "/>
<path style="fill-rule:nonzero;fill:rgb(0%,0%,0%);fill-opacity:1;stroke-width:0.708661;stroke-linecap:round;stroke-linejoin:round;stroke:rgb(0%,0%,0%);stroke-opacity:1;stroke-miterlimit:10;" d="M 73.710938 290.59375 C 73.710938 293.199219 69.800781 293.199219 69.800781 290.59375 C 69.800781 287.988281 73.710938 287.988281 73.710938 290.59375 "/>
<path style="fill-rule:nonzero;fill:rgb(0%,0%,0%);fill-opacity:1;stroke-width:0.708661;stroke-linecap:round;stroke-linejoin:round;stroke:rgb(0%,0%,0%);stroke-opacity:1;stroke-miterlimit:10;" d="M 149.246094 190.796875 C 149.246094 193.402344 145.335938 193.402344 145.335938 190.796875 C 145.335938 188.191406 149.246094 188.191406 149.246094 190.796875 "/>
<path style="fill-rule:nonzero;fill:rgb(0%,0%,0%);fill-opacity:1;stroke-width:0.708661;stroke-linecap:round;stroke-linejoin:round;stroke:rgb(0%,0%,0%);stroke-opacity:1;stroke-miterlimit:10;" d="M 88.816406 284.910156 C 88.816406 287.515625 84.910156 287.515625 84.910156 284.910156 C 84.910156 282.304688 88.816406 282.304688 88.816406 284.910156 "/>
<path style="fill-rule:nonzero;fill:rgb(0%,0%,0%);fill-opacity:1;stroke-width:0.708661;stroke-linecap:round;stroke-linejoin:round;stroke:rgb(0%,0%,0%);stroke-opacity:1;stroke-miterlimit:10;" d="M 119.03125 273.207031 C 119.03125 275.816406 115.121094 275.816406 115.121094 273.207031 C 115.121094 270.601563 119.03125 270.601563 119.03125 273.207031 "/>
<path style="fill-rule:nonzero;fill:rgb(0%,0%,0%);fill-opacity:1;stroke-width:0.708661;stroke-linecap:round;stroke-linejoin:round;stroke:rgb(0%,0%,0%);stroke-opacity:1;stroke-miterlimit:10;" d="M 164.351563 255.992188 C 164.351563 258.597656 160.441406 258.597656 160.441406 255.992188 C 160.441406 253.382813 164.351563 253.382813 164.351563 255.992188 "/>
<path style="fill-rule:nonzero;fill:rgb(0%,0%,0%);fill-opacity:1;stroke-width:0.708661;stroke-linecap:round;stroke-linejoin:round;stroke:rgb(0%,0%,0%);stroke-opacity:1;stroke-miterlimit:10;" d="M 43.5 302.128906 C 43.5 304.734375 39.589844 304.734375 39.589844 302.128906 C 39.589844 299.523438 43.5 299.523438 43.5 302.128906 "/>
<path style="fill-rule:nonzero;fill:rgb(0%,0%,0%);fill-opacity:1;stroke-width:0.708661;stroke-linecap:round;stroke-linejoin:round;stroke:rgb(0%,0%,0%);stroke-opacity:1;stroke-miterlimit:10;" d="M 13.285156 313.664063 C 13.285156 316.269531 9.375 316.269531 9.375 313.664063 C 9.375 311.054688 13.285156 311.054688 13.285156 313.664063 "/>
<path style="fill-rule:nonzero;fill:rgb(0%,0%,0%);fill-opacity:1;stroke-width:0.708661;stroke-linecap:round;stroke-linejoin:round;stroke:rgb(0%,0%,0%);stroke-opacity:1;stroke-miterlimit:10;" d="M 134.136719 267.523438 C 134.136719 270.132813 130.230469 270.132813 130.230469 267.523438 C 130.230469 264.917969 134.136719 264.917969 134.136719 267.523438 "/>
<path style="fill-rule:nonzero;fill:rgb(0%,0%,0%);fill-opacity:1;stroke-width:0.708661;stroke-linecap:round;stroke-linejoin:round;stroke:rgb(0%,0%,0%);stroke-opacity:1;stroke-miterlimit:10;" d="M 58.605469 296.445313 C 58.605469 299.050781 54.695313 299.050781 54.695313 296.445313 C 54.695313 293.839844 58.605469 293.839844 58.605469 296.445313 "/>
<path style="fill-rule:nonzero;fill:rgb(0%,0%,0%);fill-opacity:1;stroke-width:0.708661;stroke-linecap:round;stroke-linejoin:round;stroke:rgb(0%,0%,0%);stroke-opacity:1;stroke-miterlimit:10;" d="M 28.390625 307.980469 C 28.390625 310.585938 24.480469 310.585938 24.480469 307.980469 C 24.480469 305.371094 28.390625 305.371094 28.390625 307.980469 "/>
<path style="fill:none;stroke-width:2.133957;stroke-linecap:butt;stroke-linejoin:round;stroke:rgb(20%,40%,100%);stroke-opacity:1;stroke-miterlimit:10;" d="M 11.328125 320.160156 L 15.15625 318.042969 L 17.066406 316.988281 L 18.980469 315.929688 L 20.890625 314.871094 L 22.804688 313.8125 L 24.714844 312.757813 L 26.628906 311.699219 L 28.539063 310.640625 L 30.453125 309.585938 L 32.363281 308.527344 L 34.277344 307.46875 L 36.1875 306.414063 L 38.101563 305.355469 L 40.011719 304.296875 L 41.925781 303.238281 L 43.839844 302.183594 L 45.75 301.125 L 47.664063 300.066406 L 49.574219 299.011719 L 51.488281 297.953125 L 53.398438 296.894531 L 55.3125 295.839844 L 57.222656 294.78125 L 59.136719 293.722656 L 61.046875 292.664063 L 62.960938 291.609375 L 64.871094 290.550781 L 66.785156 289.492188 L 68.695313 288.4375 L 72.523438 286.320313 L 74.433594 285.265625 L 76.347656 284.207031 L 78.257813 283.148438 L 80.171875 282.089844 L 82.082031 281.035156 L 83.996094 279.976563 L 85.90625 278.917969 L 87.820313 277.863281 L 89.730469 276.804688 L 91.644531 275.746094 L 93.554688 274.691406 L 95.46875 273.632813 L 97.378906 272.574219 L 99.292969 271.515625 L 101.207031 270.460938 L 103.117188 269.402344 L 105.03125 268.34375 L 106.941406 267.289063 L 108.855469 266.230469 L 110.765625 265.171875 L 112.679688 264.117188 L 114.589844 263.058594 L 116.503906 262 L 118.414063 260.941406 L 120.328125 259.886719 L 122.238281 258.828125 L 124.152344 257.769531 L 126.0625 256.714844 L 129.890625 254.597656 L 131.800781 253.542969 L 133.714844 252.484375 L 135.625 251.425781 L 137.539063 250.367188 L 139.449219 249.3125 L 141.363281 248.253906 L 143.273438 247.195313 L 145.1875 246.140625 L 147.097656 245.082031 L 149.011719 244.023438 L 150.921875 242.96875 L 152.835938 241.910156 L 154.746094 240.851563 L 156.660156 239.792969 L 158.574219 238.738281 L 160.484375 237.679688 L 162.398438 236.621094 "/>
<path style="fill-rule:nonzero;fill:rgb(0%,0%,0%);fill-opacity:1;stroke-width:0.708661;stroke-linecap:round;stroke-linejoin:round;stroke:rgb(0%,0%,0%);stroke-opacity:1;stroke-miterlimit:10;" d="M 358.664063 68.234375 C 358.664063 70.84375 354.753906 70.84375 354.753906 68.234375 C 354.753906 65.628906 358.664063 65.628906 358.664063 68.234375 "/>
<path style="fill-rule:nonzero;fill:rgb(0%,0%,0%);fill-opacity:1;stroke-width:0.708661;stroke-linecap:round;stroke-linejoin:round;stroke:rgb(0%,0%,0%);stroke-opacity:1;stroke-miterlimit:10;" d="M 328.453125 84.953125 C 328.453125 87.558594 324.542969 87.558594 324.542969 84.953125 C 324.542969 82.347656 328.453125 82.347656 328.453125 84.953125 "/>
<path style="fill-rule:nonzero;fill:rgb(0%,0%,0%);fill-opacity:1;stroke-width:0.708661;stroke-linecap:round;stroke-linejoin:round;stroke:rgb(0%,0%,0%);stroke-opacity:1;stroke-miterlimit:10;" d="M 403.984375 74.921875 C 403.984375 77.527344 400.074219 77.527344 400.074219 74.921875 C 400.074219 72.316406 403.984375 72.316406 403.984375 74.921875 "/>
<path style="fill-rule:nonzero;fill:rgb(0%,0%,0%);fill-opacity:1;stroke-width:0.708661;stroke-linecap:round;stroke-linejoin:round;stroke:rgb(0%,0%,0%);stroke-opacity:1;stroke-miterlimit:10;" d="M 343.558594 74.421875 C 343.558594 77.027344 339.648438 77.027344 339.648438 74.421875 C 339.648438 71.816406 343.558594 71.816406 343.558594 74.421875 "/>
<path style="fill-rule:nonzero;fill:rgb(0%,0%,0%);fill-opacity:1;stroke-width:0.708661;stroke-linecap:round;stroke-linejoin:round;stroke:rgb(0%,0%,0%);stroke-opacity:1;stroke-miterlimit:10;" d="M 373.769531 66.230469 C 373.769531 68.835938 369.863281 68.835938 369.863281 66.230469 C 369.863281 63.625 373.769531 63.625 373.769531 66.230469 "/>
<path style="fill-rule:nonzero;fill:rgb(0%,0%,0%);fill-opacity:1;stroke-width:0.708661;stroke-linecap:round;stroke-linejoin:round;stroke:rgb(0%,0%,0%);stroke-opacity:1;stroke-miterlimit:10;" d="M 419.089844 85.621094 C 419.089844 88.226563 415.183594 88.226563 415.183594 85.621094 C 415.183594 83.015625 419.089844 83.015625 419.089844 85.621094 "/>
<path style="fill-rule:nonzero;fill:rgb(0%,0%,0%);fill-opacity:1;stroke-width:0.708661;stroke-linecap:round;stroke-linejoin:round;stroke:rgb(0%,0%,0%);stroke-opacity:1;stroke-miterlimit:10;" d="M 298.238281 118.550781 C 298.238281 121.160156 294.328125 121.160156 294.328125 118.550781 C 294.328125 115.945313 298.238281 115.945313 298.238281 118.550781 "/>
<path style="fill-rule:nonzero;fill:rgb(0%,0%,0%);fill-opacity:1;stroke-width:0.708661;stroke-linecap:round;stroke-linejoin:round;stroke:rgb(0%,0%,0%);stroke-opacity:1;stroke-miterlimit:10;" d="M 268.023438 169.203125 C 268.023438 171.808594 264.113281 171.808594 264.113281 169.203125 C 264.113281 166.597656 268.023438 166.597656 268.023438 169.203125 "/>
<path style="fill-rule:nonzero;fill:rgb(0%,0%,0%);fill-opacity:1;stroke-width:0.708661;stroke-linecap:round;stroke-linejoin:round;stroke:rgb(0%,0%,0%);stroke-opacity:1;stroke-miterlimit:10;" d="M 388.878906 68.402344 C 388.878906 71.007813 384.96875 71.007813 384.96875 68.402344 C 384.96875 65.796875 388.878906 65.796875 388.878906 68.402344 "/>
<path style="fill-rule:nonzero;fill:rgb(0%,0%,0%);fill-opacity:1;stroke-width:0.708661;stroke-linecap:round;stroke-linejoin:round;stroke:rgb(0%,0%,0%);stroke-opacity:1;stroke-miterlimit:10;" d="M 313.34375 99.664063 C 313.34375 102.269531 309.433594 102.269531 309.433594 99.664063 C 309.433594 97.054688 313.34375 97.054688 313.34375 99.664063 "/>
<path style="fill-rule:nonzero;fill:rgb(0%,0%,0%);fill-opacity:1;stroke-width:0.708661;stroke-linecap:round;stroke-linejoin:round;stroke:rgb(0%,0%,0%);stroke-opacity:1;stroke-miterlimit:10;" d="M 283.132813 141.789063 C 283.132813 144.394531 279.222656 144.394531 279.222656 141.789063 C 279.222656 139.183594 283.132813 139.183594 283.132813 141.789063 "/>
<path style="fill:none;stroke-width:2.133957;stroke-linecap:butt;stroke-linejoin:round;stroke:rgb(20%,40%,100%);stroke-opacity:1;stroke-miterlimit:10;" d="M 266.070313 137.425781 L 267.980469 136.367188 L 269.894531 135.3125 L 271.804688 134.253906 L 275.632813 132.136719 L 277.542969 131.078125 L 279.457031 130.019531 L 281.367188 128.960938 L 283.28125 127.90625 L 285.191406 126.847656 L 287.105469 125.789063 L 289.015625 124.730469 L 290.929688 123.671875 L 292.839844 122.613281 L 294.753906 121.558594 L 296.664063 120.5 L 298.578125 119.441406 L 300.488281 118.382813 L 304.316406 116.265625 L 306.226563 115.207031 L 308.140625 114.152344 L 310.050781 113.09375 L 311.964844 112.035156 L 313.875 110.976563 L 315.789063 109.917969 L 317.699219 108.859375 L 319.613281 107.804688 L 321.523438 106.746094 L 323.4375 105.6875 L 325.347656 104.628906 L 327.261719 103.570313 L 329.171875 102.511719 L 331.085938 101.453125 L 333 100.398438 L 334.910156 99.339844 L 336.824219 98.28125 L 338.734375 97.222656 L 340.648438 96.164063 L 342.558594 95.105469 L 344.472656 94.046875 L 346.382813 92.992188 L 348.296875 91.933594 L 350.207031 90.875 L 352.121094 89.816406 L 354.03125 88.757813 L 355.945313 87.699219 L 357.855469 86.644531 L 361.683594 84.527344 L 363.59375 83.46875 L 365.507813 82.410156 L 367.417969 81.351563 L 369.332031 80.292969 L 371.242188 79.238281 L 373.15625 78.179688 L 375.066406 77.121094 L 376.980469 76.0625 L 378.890625 75.003906 L 380.804688 73.945313 L 382.714844 72.890625 L 384.628906 71.832031 L 386.539063 70.773438 L 388.453125 69.714844 L 390.363281 68.65625 L 394.191406 66.539063 L 396.101563 65.484375 L 398.015625 64.425781 L 399.925781 63.367188 L 401.839844 62.308594 L 403.75 61.25 L 405.664063 60.191406 L 407.574219 59.136719 L 409.488281 58.078125 L 411.398438 57.019531 L 413.3125 55.960938 L 415.222656 54.902344 L 417.136719 53.84375 "/>
<path style="fill-rule:nonzero;fill:rgb(0%,0%,0%);fill-opacity:1;stroke-width:0.708661;stroke-linecap:round;stroke-linejoin:round;stroke:rgb(0%,0%,0%);stroke-opacity:1;stroke-miterlimit:10;" d="M 328.453125 293.769531 C 328.453125 296.375 324.542969 296.375 324.542969 293.769531 C 324.542969 291.164063 328.453125 291.164063 328.453125 293.769531 "/>
<path style="fill-rule:nonzero;fill:rgb(0%,0%,0%);fill-opacity:1;stroke-width:0.708661;stroke-linecap:round;stroke-linejoin:round;stroke:rgb(0%,0%,0%);stroke-opacity:1;stroke-miterlimit:10;" d="M 328.453125 307.476563 C 328.453125 310.082031 324.542969 310.082031 324.542969 307.476563 C 324.542969 304.871094 328.453125 304.871094 328.453125 307.476563 "/>
<path style="fill-rule:nonzero;fill:rgb(0%,0%,0%);fill-opacity:1;stroke-width:0.708661;stroke-linecap:round;stroke-linejoin:round;stroke:rgb(0%,0%,0%);stroke-opacity:1;stroke-miterlimit:10;" d="M 328.453125 274.878906 C 328.453125 277.488281 324.542969 277.488281 324.542969 274.878906 C 324.542969 272.273438 328.453125 272.273438 328.453125 274.878906 "/>
<path style="fill-rule:nonzero;fill:rgb(0%,0%,0%);fill-opacity:1;stroke-width:0.708661;stroke-linecap:round;stroke-linejoin:round;stroke:rgb(0%,0%,0%);stroke-opacity:1;stroke-miterlimit:10;" d="M 328.453125 255.992188 C 328.453125 258.597656 324.542969 258.597656 324.542969 255.992188 C 324.542969 253.382813 328.453125 253.382813 328.453125 255.992188 "/>
<path style="fill-rule:nonzero;fill:rgb(0%,0%,0%);fill-opacity:1;stroke-width:0.708661;stroke-linecap:round;stroke-linejoin:round;stroke:rgb(0%,0%,0%);stroke-opacity:1;stroke-miterlimit:10;" d="M 328.453125 262.175781 C 328.453125 264.78125 324.542969 264.78125 324.542969 262.175781 C 324.542969 259.570313 328.453125 259.570313 328.453125 262.175781 "/>
<path style="fill-rule:nonzero;fill:rgb(0%,0%,0%);fill-opacity:1;stroke-width:0.708661;stroke-linecap:round;stroke-linejoin:round;stroke:rgb(0%,0%,0%);stroke-opacity:1;stroke-miterlimit:10;" d="M 328.453125 286.082031 C 328.453125 288.6875 324.542969 288.6875 324.542969 286.082031 C 324.542969 283.472656 328.453125 283.472656 328.453125 286.082031 "/>
<path style="fill-rule:nonzero;fill:rgb(0%,0%,0%);fill-opacity:1;stroke-width:0.708661;stroke-linecap:round;stroke-linejoin:round;stroke:rgb(0%,0%,0%);stroke-opacity:1;stroke-miterlimit:10;" d="M 328.453125 316.003906 C 328.453125 318.609375 324.542969 318.609375 324.542969 316.003906 C 324.542969 313.394531 328.453125 313.394531 328.453125 316.003906 "/>
<path style="fill-rule:nonzero;fill:rgb(0%,0%,0%);fill-opacity:1;stroke-width:0.708661;stroke-linecap:round;stroke-linejoin:round;stroke:rgb(0%,0%,0%);stroke-opacity:1;stroke-miterlimit:10;" d="M 494.625 194.808594 C 494.625 197.414063 490.714844 197.414063 490.714844 194.808594 C 490.714844 192.203125 494.625 192.203125 494.625 194.808594 "/>
<path style="fill-rule:nonzero;fill:rgb(0%,0%,0%);fill-opacity:1;stroke-width:0.708661;stroke-linecap:round;stroke-linejoin:round;stroke:rgb(0%,0%,0%);stroke-opacity:1;stroke-miterlimit:10;" d="M 328.453125 310.820313 C 328.453125 313.425781 324.542969 313.425781 324.542969 310.820313 C 324.542969 308.214844 328.453125 308.214844 328.453125 310.820313 "/>
<path style="fill-rule:nonzero;fill:rgb(0%,0%,0%);fill-opacity:1;stroke-width:0.708661;stroke-linecap:round;stroke-linejoin:round;stroke:rgb(0%,0%,0%);stroke-opacity:1;stroke-miterlimit:10;" d="M 328.453125 271.535156 C 328.453125 274.144531 324.542969 274.144531 324.542969 271.535156 C 324.542969 268.929688 328.453125 268.929688 328.453125 271.535156 "/>
<path style="fill-rule:nonzero;fill:rgb(0%,0%,0%);fill-opacity:1;stroke-width:0.708661;stroke-linecap:round;stroke-linejoin:round;stroke:rgb(0%,0%,0%);stroke-opacity:1;stroke-miterlimit:10;" d="M 328.453125 288.585938 C 328.453125 291.195313 324.542969 291.195313 324.542969 288.585938 C 324.542969 285.980469 328.453125 285.980469 328.453125 288.585938 "/>
<path style="fill:none;stroke-width:2.133957;stroke-linecap:butt;stroke-linejoin:round;stroke:rgb(20%,40%,100%);stroke-opacity:1;stroke-miterlimit:10;" d="M 326.496094 286.730469 L 328.601563 285.570313 L 330.703125 284.40625 L 332.808594 283.242188 L 334.910156 282.078125 L 337.015625 280.914063 L 339.117188 279.75 L 341.222656 278.585938 L 343.324219 277.421875 L 345.425781 276.261719 L 347.53125 275.097656 L 349.632813 273.933594 L 351.738281 272.769531 L 353.839844 271.605469 L 355.945313 270.441406 L 358.046875 269.277344 L 360.152344 268.113281 L 362.253906 266.953125 L 364.359375 265.789063 L 366.460938 264.625 L 368.566406 263.460938 L 370.667969 262.296875 L 372.773438 261.132813 L 374.875 259.96875 L 376.980469 258.804688 L 379.082031 257.640625 L 381.1875 256.480469 L 383.289063 255.316406 L 385.394531 254.152344 L 387.496094 252.988281 L 389.601563 251.824219 L 391.703125 250.660156 L 393.808594 249.496094 L 395.910156 248.332031 L 398.015625 247.171875 L 400.117188 246.007813 L 402.222656 244.84375 L 404.324219 243.679688 L 406.429688 242.515625 L 408.53125 241.351563 L 410.636719 240.1875 L 412.738281 239.023438 L 414.84375 237.863281 L 419.046875 235.535156 L 421.152344 234.371094 L 423.253906 233.207031 L 425.359375 232.042969 L 427.460938 230.878906 L 429.566406 229.714844 L 431.667969 228.554688 L 433.773438 227.390625 L 435.875 226.226563 L 437.980469 225.0625 L 440.082031 223.898438 L 442.1875 222.734375 L 444.289063 221.570313 L 446.394531 220.40625 L 448.496094 219.246094 L 450.601563 218.082031 L 452.703125 216.917969 L 454.808594 215.753906 L 456.910156 214.589844 L 459.015625 213.425781 L 461.117188 212.261719 L 463.222656 211.097656 L 465.324219 209.9375 L 467.429688 208.773438 L 469.53125 207.609375 L 471.636719 206.445313 L 473.738281 205.28125 L 475.84375 204.117188 L 477.945313 202.953125 L 480.050781 201.789063 L 482.152344 200.625 L 484.257813 199.464844 L 486.359375 198.300781 L 488.464844 197.136719 L 490.566406 195.972656 L 492.671875 194.808594 "/>
</g>
</svg>
