<?xml version="1.0" encoding="UTF-8"?>
<svg xmlns="http://www.w3.org/2000/svg" xmlns:xlink="http://www.w3.org/1999/xlink" width="504pt" height="504pt" viewBox="0 0 504 504" version="1.1">
<g id="surface2574">
<rect x="0" y="0" width="504" height="504" style="fill:rgb(100%,100%,100%);fill-opacity:1;stroke:none;"/>
<path style="fill-rule:nonzero;fill:rgb(0%,0%,0%);fill-opacity:1;stroke-width:0.708661;stroke-linecap:round;stroke-linejoin:round;stroke:rgb(0%,0%,0%);stroke-opacity:1;stroke-miterlimit:10;" d="M 103.925781 121.808594 C 103.925781 124.414063 100.015625 124.414063 100.015625 121.808594 C 100.015625 119.203125 103.925781 119.203125 103.925781 121.808594 "/>
<path style="fill-rule:nonzero;fill:rgb(0%,0%,0%);fill-opacity:1;stroke-width:0.708661;stroke-linecap:round;stroke-linejoin:round;stroke:rgb(0%,0%,0%);stroke-opacity:1;stroke-miterlimit:10;" d="M 73.710938 147.429688 C 73.710938 150.039063 69.800781 150.039063 69.800781 147.429688 C 69.800781 144.824219 73.710938 144.824219 73.710938 147.429688 "/>
<path style="fill-rule:nonzero;fill:rgb(0%,0%,0%);fill-opacity:1;stroke-width:0.708661;stroke-linecap:round;stroke-linejoin:round;stroke:rgb(0%,0%,0%);stroke-opacity:1;stroke-miterlimit:10;" d="M 149.246094 132.621094 C 149.246094 135.230469 145.335938 135.230469 145.335938 132.621094 C 145.335938 130.015625 149.246094 130.015625 149.246094 132.621094 "/>
<path style="fill-rule:nonzero;fill:rgb(0%,0%,0%);fill-opacity:1;stroke-width:0.708661;stroke-linecap:round;stroke-linejoin:round;stroke:rgb(0%,0%,0%);stroke-opacity:1;stroke-miterlimit:10;" d="M 88.816406 103.710938 C 88.816406 106.316406 84.910156 106.316406 84.910156 103.710938 C 84.910156 101.101563 88.816406 101.101563 88.816406 103.710938 "/>
<path style="fill-rule:nonzero;fill:rgb(0%,0%,0%);fill-opacity:1;stroke-width:0.708661;stroke-linecap:round;stroke-linejoin:round;stroke:rgb(0%,0%,0%);stroke-opacity:1;stroke-miterlimit:10;" d="M 119.03125 114.992188 C 119.03125 117.597656 115.121094 117.597656 115.121094 114.992188 C 115.121094 112.386719 119.03125 112.386719 119.03125 114.992188 "/>
<path style="fill-rule:nonzero;fill:rgb(0%,0%,0%);fill-opacity:1;stroke-width:0.708661;stroke-linecap:round;stroke-linejoin:round;stroke:rgb(0%,0%,0%);stroke-opacity:1;stroke-miterlimit:10;" d="M 164.351563 76.675781 C 164.351563 79.285156 160.441406 79.285156 160.441406 76.675781 C 160.441406 74.070313 164.351563 74.070313 164.351563 76.675781 "/>
<path style="fill-rule:nonzero;fill:rgb(0%,0%,0%);fill-opacity:1;stroke-width:0.708661;stroke-linecap:round;stroke-linejoin:round;stroke:rgb(0%,0%,0%);stroke-opacity:1;stroke-miterlimit:10;" d="M 43.5 140.613281 C 43.5 143.222656 39.589844 143.222656 39.589844 140.613281 C 39.589844 138.007813 43.5 138.007813 43.5 140.613281 "/>
<path style="fill-rule:nonzero;fill:rgb(0%,0%,0%);fill-opacity:1;stroke-width:0.708661;stroke-linecap:round;stroke-linejoin:round;stroke:rgb(0%,0%,0%);stroke-opacity:1;stroke-miterlimit:10;" d="M 13.285156 210.664063 C 13.285156 213.269531 9.375 213.269531 9.375 210.664063 C 9.375 208.054688 13.285156 208.054688 13.285156 210.664063 "/>
<path style="fill-rule:nonzero;fill:rgb(0%,0%,0%);fill-opacity:1;stroke-width:0.708661;stroke-linecap:round;stroke-linejoin:round;stroke:rgb(0%,0%,0%);stroke-opacity:1;stroke-miterlimit:10;" d="M 134.136719 55.992188 C 134.136719 58.597656 130.230469 58.597656 130.230469 55.992188 C 130.230469 53.386719 134.136719 53.386719 134.136719 55.992188 "/>
<path style="fill-rule:nonzero;fill:rgb(0%,0%,0%);fill-opacity:1;stroke-width:0.708661;stroke-linecap:round;stroke-linejoin:round;stroke:rgb(0%,0%,0%);stroke-opacity:1;stroke-miterlimit:10;" d="M 58.605469 197.5 C 58.605469 200.105469 54.695313 200.105469 54.695313 197.5 C 54.695313 194.894531 58.605469 194.894531 58.605469 197.5 "/>
<path style="fill-rule:nonzero;fill:rgb(0%,0%,0%);fill-opacity:1;stroke-width:0.708661;stroke-linecap:round;stroke-linejoin:round;stroke:rgb(0%,0%,0%);stroke-opacity:1;stroke-miterlimit:10;" d="M 28.390625 177.285156 C 28.390625 179.890625 24.480469 179.890625 24.480469 177.285156 C 24.480469 174.679688 28.390625 174.679688 28.390625 177.285156 "/>
<path style="fill:none;stroke-width:2.133957;stroke-linecap:butt;stroke-linejoin:round;stroke:rgb(20%,40%,100%);stroke-opacity:1;stroke-miterlimit:10;" d="M 11.328125 193.257813 L 15.15625 190.28125 L 17.066406 188.792969 L 18.980469 187.304688 L 20.890625 185.816406 L 22.804688 184.328125 L 24.714844 182.839844 L 26.628906 181.355469 L 28.539063 179.867188 L 30.453125 178.378906 L 32.363281 176.890625 L 34.277344 175.402344 L 36.1875 173.914063 L 38.101563 172.425781 L 40.011719 170.9375 L 43.839844 167.960938 L 45.75 166.472656 L 47.664063 164.984375 L 49.574219 163.496094 L 51.488281 162.007813 L 53.398438 160.523438 L 55.3125 159.035156 L 57.222656 157.546875 L 59.136719 156.058594 L 61.046875 154.570313 L 62.960938 153.082031 L 64.871094 151.59375 L 66.785156 150.105469 L 68.695313 148.617188 L 72.523438 145.640625 L 74.433594 144.152344 L 76.347656 142.664063 L 78.257813 141.175781 L 80.171875 139.6875 L 82.082031 138.203125 L 83.996094 136.714844 L 85.90625 135.226563 L 87.820313 133.738281 L 89.730469 132.25 L 91.644531 130.761719 L 93.554688 129.273438 L 95.46875 127.785156 L 97.378906 126.296875 L 101.207031 123.320313 L 103.117188 121.832031 L 105.03125 120.34375 L 106.941406 118.855469 L 108.855469 117.371094 L 110.765625 115.882813 L 112.679688 114.394531 L 114.589844 112.90625 L 116.503906 111.417969 L 118.414063 109.929688 L 120.328125 108.441406 L 122.238281 106.953125 L 124.152344 105.464844 L 126.0625 103.976563 L 129.890625 101 L 131.800781 99.511719 L 133.714844 98.023438 L 135.625 96.539063 L 137.539063 95.050781 L 139.449219 93.5625 L 141.363281 92.074219 L 143.273438 90.585938 L 145.1875 89.097656 L 147.097656 87.609375 L 149.011719 86.121094 L 150.921875 84.632813 L 152.835938 83.144531 L 154.746094 81.65625 L 158.574219 78.679688 L 160.484375 77.191406 L 162.398438 75.707031 "/>
<path style="fill-rule:nonzero;fill:rgb(0%,0%,0%);fill-opacity:1;stroke-width:0.708661;stroke-linecap:round;stroke-linejoin:round;stroke:rgb(0%,0%,0%);stroke-opacity:1;stroke-miterlimit:10;" d="M 103.925781 390.183594 C 103.925781 392.789063 100.015625 392.789063 100.015625 390.183594 C 100.015625 387.578125 103.925781 387.578125 103.925781 390.183594 "/>
<path style="fill-rule:nonzero;fill:rgb(0%,0%,0%);fill-opacity:1;stroke-width:0.708661;stroke-linecap:round;stroke-linejoin:round;stroke:rgb(0%,0%,0%);stroke-opacity:1;stroke-miterlimit:10;" d="M 73.710938 406.402344 C 73.710938 409.007813 69.800781 409.007813 69.800781 406.402344 C 69.800781 403.796875 73.710938 403.796875 73.710938 406.402344 "/>
<path style="fill-rule:nonzero;fill:rgb(0%,0%,0%);fill-opacity:1;stroke-width:0.708661;stroke-linecap:round;stroke-linejoin:round;stroke:rgb(0%,0%,0%);stroke-opacity:1;stroke-miterlimit:10;" d="M 149.246094 266.070313 C 149.246094 268.675781 145.335938 268.675781 145.335938 266.070313 C 145.335938 263.464844 149.246094 263.464844 149.246094 266.070313 "/>
<path style="fill-rule:nonzero;fill:rgb(0%,0%,0%);fill-opacity:1;stroke-width:0.708661;stroke-linecap:round;stroke-linejoin:round;stroke:rgb(0%,0%,0%);stroke-opacity:1;stroke-miterlimit:10;" d="M 88.816406 398.410156 C 88.816406 401.015625 84.910156 401.015625 84.910156 398.410156 C 84.910156 395.804688 88.816406 395.804688 88.816406 398.410156 "/>
<path style="fill-rule:nonzero;fill:rgb(0%,0%,0%);fill-opacity:1;stroke-width:0.708661;stroke-linecap:round;stroke-linejoin:round;stroke:rgb(0%,0%,0%);stroke-opacity:1;stroke-miterlimit:10;" d="M 119.03125 381.957031 C 119.03125 384.5625 115.121094 384.5625 115.121094 381.957031 C 115.121094 379.347656 119.03125 379.347656 119.03125 381.957031 "/>
<path style="fill-rule:nonzero;fill:rgb(0%,0%,0%);fill-opacity:1;stroke-width:0.708661;stroke-linecap:round;stroke-linejoin:round;stroke:rgb(0%,0%,0%);stroke-opacity:1;stroke-miterlimit:10;" d="M 164.351563 357.742188 C 164.351563 360.351563 160.441406 360.351563 160.441406 357.742188 C 160.441406 355.136719 164.351563 355.136719 164.351563 357.742188 "/>
<path style="fill-rule:nonzero;fill:rgb(0%,0%,0%);fill-opacity:1;stroke-width:0.708661;stroke-linecap:round;stroke-linejoin:round;stroke:rgb(0%,0%,0%);stroke-opacity:1;stroke-miterlimit:10;" d="M 43.5 422.621094 C 43.5 425.226563 39.589844 425.226563 39.589844 422.621094 C 39.589844 420.015625 43.5 420.015625 43.5 422.621094 "/>
<path style="fill-rule:nonzero;fill:rgb(0%,0%,0%);fill-opacity:1;stroke-width:0.708661;stroke-linecap:round;stroke-linejoin:round;stroke:rgb(0%,0%,0%);stroke-opacity:1;stroke-miterlimit:10;" d="M 13.285156 438.839844 C 13.285156 441.445313 9.375 441.445313 9.375 438.839844 C 9.375 436.234375 13.285156 436.234375 13.285156 438.839844 "/>
<path style="fill-rule:nonzero;fill:rgb(0%,0%,0%);fill-opacity:1;stroke-width:0.708661;stroke-linecap:round;stroke-linejoin:round;stroke:rgb(0%,0%,0%);stroke-opacity:1;stroke-miterlimit:10;" d="M 134.136719 373.964844 C 134.136719 376.570313 130.230469 376.570313 130.230469 373.964844 C 130.230469 371.355469 134.136719 371.355469 134.136719 373.964844 "/>
<path style="fill-rule:nonzero;fill:rgb(0%,0%,0%);fill-opacity:1;stroke-width:0.708661;stroke-linecap:round;stroke-linejoin:round;stroke:rgb(0%,0%,0%);stroke-opacity:1;stroke-miterlimit:10;" d="M 58.605469 414.628906 C 58.605469 417.234375 54.695313 417.234375 54.695313 414.628906 C 54.695313 412.023438 58.605469 412.023438 58.605469 414.628906 "/>
<path style="fill-rule:nonzero;fill:rgb(0%,0%,0%);fill-opacity:1;stroke-width:0.708661;stroke-linecap:round;stroke-linejoin:round;stroke:rgb(0%,0%,0%);stroke-opacity:1;stroke-miterlimit:10;" d="M 28.390625 430.847656 C 28.390625 433.453125 24.480469 433.453125 24.480469 430.847656 C 24.480469 428.242188 28.390625 428.242188 28.390625 430.847656 "/>
<path style="fill:none;stroke-width:2.133957;stroke-linecap:butt;stroke-linejoin:round;stroke:rgb(20%,40%,100%);stroke-opacity:1;stroke-miterlimit:10;" d="M 11.328125 447.976563 L 13.242188 446.488281 L 15.15625 445.003906 L 17.066406 443.515625 L 18.980469 442.027344 L 20.890625 440.542969 L 22.804688 439.054688 L 24.714844 437.566406 L 26.628906 436.082031 L 28.539063 434.59375 L 30.453125 433.105469 L 32.363281 431.621094 L 34.277344 430.132813 L 36.1875 428.644531 L 38.101563 427.160156 L 40.011719 425.671875 L 41.925781 424.183594 L 43.839844 422.699219 L 45.75 421.210938 L 47.664063 419.722656 L 49.574219 418.238281 L 51.488281 416.75 L 53.398438 415.265625 L 55.3125 413.777344 L 57.222656 412.289063 L 59.136719 410.804688 L 61.046875 409.316406 L 62.960938 407.828125 L 64.871094 406.34375 L 66.785156 404.855469 L 68.695313 403.367188 L 70.609375 401.882813 L 72.523438 400.394531 L 74.433594 398.90625 L 76.347656 397.421875 L 78.257813 395.933594 L 80.171875 394.445313 L 82.082031 392.960938 L 83.996094 391.472656 L 85.90625 389.984375 L 87.820313 388.5 L 89.730469 387.011719 L 91.644531 385.523438 L 93.554688 384.039063 L 95.46875 382.550781 L 97.378906 381.0625 L 99.292969 379.578125 L 101.207031 378.089844 L 103.117188 376.605469 L 105.03125 375.117188 L 106.941406 373.628906 L 108.855469 372.144531 L 110.765625 370.65625 L 112.679688 369.167969 L 114.589844 367.683594 L 116.503906 366.195313 L 118.414063 364.707031 L 120.328125 363.222656 L 122.238281 361.734375 L 124.152344 360.246094 L 126.0625 358.761719 L 129.890625 355.785156 L 131.800781 354.300781 L 133.714844 352.8125 L 135.625 351.324219 L 137.539063 349.839844 L 139.449219 348.351563 L 141.363281 346.863281 L 143.273438 345.378906 L 145.1875 343.890625 L 147.097656 342.40625 L 149.011719 340.917969 L 150.921875 339.429688 L 152.835938 337.945313 L 154.746094 336.457031 L 156.660156 334.96875 L 158.574219 333.484375 L 160.484375 331.996094 L 162.398438 330.507813 "/>
<path style="fill-rule:nonzero;fill:rgb(0%,0%,0%);fill-opacity:1;stroke-width:0.708661;stroke-linecap:round;stroke-linejoin:round;stroke:rgb(0%,0%,0%);stroke-opacity:1;stroke-miterlimit:10;" d="M 358.664063 95.953125 C 358.664063 98.558594 354.753906 98.558594 354.753906 95.953125 C 354.753906 93.347656 358.664063 93.347656 358.664063 95.953125 "/>
<path style="fill-rule:nonzero;fill:rgb(0%,0%,0%);fill-opacity:1;stroke-width:0.708661;stroke-linecap:round;stroke-linejoin:round;stroke:rgb(0%,0%,0%);stroke-opacity:1;stroke-miterlimit:10;" d="M 328.453125 119.457031 C 328.453125 122.066406 324.542969 122.066406 324.542969 119.457031 C 324.542969 116.851563 328.453125 116.851563 328.453125 119.457031 "/>
<path style="fill-rule:nonzero;fill:rgb(0%,0%,0%);fill-opacity:1;stroke-width:0.708661;stroke-linecap:round;stroke-linejoin:round;stroke:rgb(0%,0%,0%);stroke-opacity:1;stroke-miterlimit:10;" d="M 403.984375 105.355469 C 403.984375 107.960938 400.074219 107.960938 400.074219 105.355469 C 400.074219 102.75 403.984375 102.75 403.984375 105.355469 "/>
<path style="fill-rule:nonzero;fill:rgb(0%,0%,0%);fill-opacity:1;stroke-width:0.708661;stroke-linecap:round;stroke-linejoin:round;stroke:rgb(0%,0%,0%);stroke-opacity:1;stroke-miterlimit:10;" d="M 343.558594 104.648438 C 343.558594 107.257813 339.648438 107.257813 339.648438 104.648438 C 339.648438 102.042969 343.558594 102.042969 343.558594 104.648438 "/>
<path style="fill-rule:nonzero;fill:rgb(0%,0%,0%);fill-opacity:1;stroke-width:0.708661;stroke-linecap:round;stroke-linejoin:round;stroke:rgb(0%,0%,0%);stroke-opacity:1;stroke-miterlimit:10;" d="M 373.769531 93.132813 C 373.769531 95.738281 369.863281 95.738281 369.863281 93.132813 C 369.863281 90.523438 373.769531 90.523438 373.769531 93.132813 "/>
<path style="fill-rule:nonzero;fill:rgb(0%,0%,0%);fill-opacity:1;stroke-width:0.708661;stroke-linecap:round;stroke-linejoin:round;stroke:rgb(0%,0%,0%);stroke-opacity:1;stroke-miterlimit:10;" d="M 419.089844 120.398438 C 419.089844 123.003906 415.183594 123.003906 415.183594 120.398438 C 415.183594 117.792969 419.089844 117.792969 419.089844 120.398438 "/>
<path style="fill-rule:nonzero;fill:rgb(0%,0%,0%);fill-opacity:1;stroke-width:0.708661;stroke-linecap:round;stroke-linejoin:round;stroke:rgb(0%,0%,0%);stroke-opacity:1;stroke-miterlimit:10;" d="M 298.238281 166.707031 C 298.238281 169.3125 294.328125 169.3125 294.328125 166.707031 C 294.328125 164.101563 298.238281 164.101563 298.238281 166.707031 "/>
<path style="fill-rule:nonzero;fill:rgb(0%,0%,0%);fill-opacity:1;stroke-width:0.708661;stroke-linecap:round;stroke-linejoin:round;stroke:rgb(0%,0%,0%);stroke-opacity:1;stroke-miterlimit:10;" d="M 268.023438 237.929688 C 268.023438 240.535156 264.113281 240.535156 264.113281 237.929688 C 264.113281 235.324219 268.023438 235.324219 268.023438 237.929688 "/>
<path style="fill-rule:nonzero;fill:rgb(0%,0%,0%);fill-opacity:1;stroke-width:0.708661;stroke-linecap:round;stroke-linejoin:round;stroke:rgb(0%,0%,0%);stroke-opacity:1;stroke-miterlimit:10;" d="M 388.878906 96.1875 C 388.878906 98.792969 384.96875 98.792969 384.96875 96.1875 C 384.96875 93.582031 388.878906 93.582031 388.878906 96.1875 "/>
<path style="fill-rule:nonzero;fill:rgb(0%,0%,0%);fill-opacity:1;stroke-width:0.708661;stroke-linecap:round;stroke-linejoin:round;stroke:rgb(0%,0%,0%);stroke-opacity:1;stroke-miterlimit:10;" d="M 313.34375 140.144531 C 313.34375 142.75 309.433594 142.75 309.433594 140.144531 C 309.433594 137.539063 313.34375 137.539063 313.34375 140.144531 "/>
<path style="fill-rule:nonzero;fill:rgb(0%,0%,0%);fill-opacity:1;stroke-width:0.708661;stroke-linecap:round;stroke-linejoin:round;stroke:rgb(0%,0%,0%);stroke-opacity:1;stroke-miterlimit:10;" d="M 283.132813 199.378906 C 283.132813 201.988281 279.222656 201.988281 279.222656 199.378906 C 279.222656 196.773438 283.132813 196.773438 283.132813 199.378906 "/>
<path style="fill:none;stroke-width:2.133957;stroke-linecap:butt;stroke-linejoin:round;stroke:rgb(20%,40%,100%);stroke-opacity:1;stroke-miterlimit:10;" d="M 266.070313 193.246094 L 267.980469 191.757813 L 269.894531 190.273438 L 271.804688 188.785156 L 275.632813 185.808594 L 277.542969 184.320313 L 279.457031 182.832031 L 281.367188 181.34375 L 283.28125 179.855469 L 285.191406 178.371094 L 287.105469 176.882813 L 289.015625 175.394531 L 290.929688 173.90625 L 292.839844 172.417969 L 294.753906 170.929688 L 296.664063 169.441406 L 298.578125 167.957031 L 300.488281 166.46875 L 304.316406 163.492188 L 306.226563 162.003906 L 308.140625 160.515625 L 310.050781 159.027344 L 311.964844 157.542969 L 313.875 156.054688 L 315.789063 154.566406 L 317.699219 153.078125 L 319.613281 151.589844 L 321.523438 150.101563 L 323.4375 148.613281 L 325.347656 147.128906 L 327.261719 145.640625 L 329.171875 144.152344 L 333 141.175781 L 334.910156 139.6875 L 336.824219 138.199219 L 338.734375 136.714844 L 340.648438 135.226563 L 342.558594 133.738281 L 344.472656 132.25 L 346.382813 130.761719 L 348.296875 129.273438 L 350.207031 127.785156 L 352.121094 126.300781 L 354.03125 124.8125 L 355.945313 123.324219 L 357.855469 121.835938 L 361.683594 118.859375 L 363.59375 117.371094 L 365.507813 115.882813 L 367.417969 114.398438 L 369.332031 112.910156 L 371.242188 111.421875 L 373.15625 109.933594 L 375.066406 108.445313 L 376.980469 106.957031 L 378.890625 105.46875 L 380.804688 103.984375 L 382.714844 102.496094 L 384.628906 101.007813 L 386.539063 99.519531 L 388.453125 98.03125 L 390.363281 96.542969 L 392.277344 95.054688 L 394.191406 93.570313 L 396.101563 92.082031 L 398.015625 90.59375 L 399.925781 89.105469 L 401.839844 87.617188 L 403.75 86.128906 L 405.664063 84.640625 L 407.574219 83.15625 L 409.488281 81.667969 L 411.398438 80.179688 L 413.3125 78.691406 L 415.222656 77.203125 L 417.136719 75.714844 "/>
<path style="fill-rule:nonzero;fill:rgb(0%,0%,0%);fill-opacity:1;stroke-width:0.708661;stroke-linecap:round;stroke-linejoin:round;stroke:rgb(0%,0%,0%);stroke-opacity:1;stroke-miterlimit:10;" d="M 328.453125 410.867188 C 328.453125 413.476563 324.542969 413.476563 324.542969 410.867188 C 324.542969 408.261719 328.453125 408.261719 328.453125 410.867188 "/>
<path style="fill-rule:nonzero;fill:rgb(0%,0%,0%);fill-opacity:1;stroke-width:0.708661;stroke-linecap:round;stroke-linejoin:round;stroke:rgb(0%,0%,0%);stroke-opacity:1;stroke-miterlimit:10;" d="M 328.453125 430.144531 C 328.453125 432.75 324.542969 432.75 324.542969 430.144531 C 324.542969 427.535156 328.453125 427.535156 328.453125 430.144531 "/>
<path style="fill-rule:nonzero;fill:rgb(0%,0%,0%);fill-opacity:1;stroke-width:0.708661;stroke-linecap:round;stroke-linejoin:round;stroke:rgb(0%,0%,0%);stroke-opacity:1;stroke-miterlimit:10;" d="M 328.453125 384.304688 C 328.453125 386.914063 324.542969 386.914063 324.542969 384.304688 C 324.542969 381.699219 328.453125 381.699219 328.453125 384.304688 "/>
<path style="fill-rule:nonzero;fill:rgb(0%,0%,0%);fill-opacity:1;stroke-width:0.708661;stroke-linecap:round;stroke-linejoin:round;stroke:rgb(0%,0%,0%);stroke-opacity:1;stroke-miterlimit:10;" d="M 328.453125 357.742188 C 328.453125 360.351563 324.542969 360.351563 324.542969 357.742188 C 324.542969 355.136719 328.453125 355.136719 328.453125 357.742188 "/>
<path style="fill-rule:nonzero;fill:rgb(0%,0%,0%);fill-opacity:1;stroke-width:0.708661;stroke-linecap:round;stroke-linejoin:round;stroke:rgb(0%,0%,0%);stroke-opacity:1;stroke-miterlimit:10;" d="M 328.453125 366.441406 C 328.453125 369.046875 324.542969 369.046875 324.542969 366.441406 C 324.542969 363.835938 328.453125 363.835938 328.453125 366.441406 "/>
<path style="fill-rule:nonzero;fill:rgb(0%,0%,0%);fill-opacity:1;stroke-width:0.708661;stroke-linecap:round;stroke-linejoin:round;stroke:rgb(0%,0%,0%);stroke-opacity:1;stroke-miterlimit:10;" d="M 328.453125 400.054688 C 328.453125 402.660156 324.542969 402.660156 324.542969 400.054688 C 324.542969 397.449219 328.453125 397.449219 328.453125 400.054688 "/>
<path style="fill-rule:nonzero;fill:rgb(0%,0%,0%);fill-opacity:1;stroke-width:0.708661;stroke-linecap:round;stroke-linejoin:round;stroke:rgb(0%,0%,0%);stroke-opacity:1;stroke-miterlimit:10;" d="M 328.453125 442.132813 C 328.453125 444.738281 324.542969 444.738281 324.542969 442.132813 C 324.542969 439.523438 328.453125 439.523438 328.453125 442.132813 "/>
<path style="fill-rule:nonzero;fill:rgb(0%,0%,0%);fill-opacity:1;stroke-width:0.708661;stroke-linecap:round;stroke-linejoin:round;stroke:rgb(0%,0%,0%);stroke-opacity:1;stroke-miterlimit:10;" d="M 494.625 271.710938 C 494.625 274.316406 490.714844 274.316406 490.714844 271.710938 C 490.714844 269.105469 494.625 269.105469 494.625 271.710938 "/>
<path style="fill-rule:nonzero;fill:rgb(0%,0%,0%);fill-opacity:1;stroke-width:0.708661;stroke-linecap:round;stroke-linejoin:round;stroke:rgb(0%,0%,0%);stroke-opacity:1;stroke-miterlimit:10;" d="M 328.453125 434.84375 C 328.453125 437.449219 324.542969 437.449219 324.542969 434.84375 C 324.542969 432.238281 328.453125 432.238281 328.453125 434.84375 "/>
<path style="fill-rule:nonzero;fill:rgb(0%,0%,0%);fill-opacity:1;stroke-width:0.708661;stroke-linecap:round;stroke-linejoin:round;stroke:rgb(0%,0%,0%);stroke-opacity:1;stroke-miterlimit:10;" d="M 328.453125 379.605469 C 328.453125 382.210938 324.542969 382.210938 324.542969 379.605469 C 324.542969 377 328.453125 377 328.453125 379.605469 "/>
<path style="fill-rule:nonzero;fill:rgb(0%,0%,0%);fill-opacity:1;stroke-width:0.708661;stroke-linecap:round;stroke-linejoin:round;stroke:rgb(0%,0%,0%);stroke-opacity:1;stroke-miterlimit:10;" d="M 328.453125 403.582031 C 328.453125 406.1875 324.542969 406.1875 324.542969 403.582031 C 324.542969 400.976563 328.453125 400.976563 328.453125 403.582031 "/>
<path style="fill:none;stroke-width:2.133957;stroke-linecap:butt;stroke-linejoin:round;stroke:rgb(20%,40%,100%);stroke-opacity:1;stroke-miterlimit:10;" d="M 326.496094 400.972656 L 328.601563 399.335938 L 330.703125 397.699219 L 332.808594 396.0625 L 334.910156 394.425781 L 337.015625 392.792969 L 339.117188 391.15625 L 341.222656 389.519531 L 345.425781 386.246094 L 347.53125 384.609375 L 349.632813 382.972656 L 351.738281 381.335938 L 353.839844 379.703125 L 355.945313 378.066406 L 358.046875 376.429688 L 360.152344 374.792969 L 362.253906 373.15625 L 364.359375 371.519531 L 366.460938 369.882813 L 368.566406 368.246094 L 370.667969 366.613281 L 372.773438 364.976563 L 374.875 363.339844 L 376.980469 361.703125 L 379.082031 360.066406 L 381.1875 358.429688 L 383.289063 356.792969 L 385.394531 355.15625 L 387.496094 353.523438 L 389.601563 351.886719 L 391.703125 350.25 L 393.808594 348.613281 L 395.910156 346.976563 L 398.015625 345.339844 L 400.117188 343.703125 L 402.222656 342.070313 L 404.324219 340.433594 L 406.429688 338.796875 L 408.53125 337.160156 L 410.636719 335.523438 L 412.738281 333.886719 L 414.84375 332.25 L 416.945313 330.613281 L 419.046875 328.980469 L 421.152344 327.34375 L 423.253906 325.707031 L 425.359375 324.070313 L 427.460938 322.433594 L 429.566406 320.796875 L 431.667969 319.160156 L 433.773438 317.523438 L 435.875 315.890625 L 437.980469 314.253906 L 440.082031 312.617188 L 442.1875 310.980469 L 444.289063 309.34375 L 446.394531 307.707031 L 448.496094 306.070313 L 450.601563 304.433594 L 452.703125 302.800781 L 454.808594 301.164063 L 456.910156 299.527344 L 459.015625 297.890625 L 461.117188 296.253906 L 463.222656 294.617188 L 465.324219 292.980469 L 467.429688 291.347656 L 469.53125 289.710938 L 471.636719 288.074219 L 473.738281 286.4375 L 475.84375 284.800781 L 477.945313 283.164063 L 480.050781 281.527344 L 482.152344 279.890625 L 484.257813 278.257813 L 486.359375 276.621094 L 488.464844 274.984375 L 490.566406 273.347656 L 492.671875 271.710938 "/>
</g>
</svg>
